<?xml version="1.0" encoding="UTF-8" standalone="no"?>
<!DOCTYPE svg PUBLIC "-//W3C//DTD SVG 1.1//EN"
 "http://www.w3.org/Graphics/SVG/1.1/DTD/svg11.dtd">
<!-- Generated by graphviz version 2.43.0 (0)
 -->
<!-- Title: %3 Pages: 1 -->
<svg width="498pt" height="2160pt"
 viewBox="0.00 0.00 498.13 2160.00" xmlns="http://www.w3.org/2000/svg" xmlns:xlink="http://www.w3.org/1999/xlink">
<g id="graph0" class="graph" transform="scale(0.86 0.86) rotate(0) translate(4 2498)">
<title>%3</title>
<polygon fill="white" stroke="transparent" points="-4,4 -4,-2498 573,-2498 573,4 -4,4"/>
<text text-anchor="middle" x="284.5" y="-2477.2" font-family="Times,serif" font-size="16.00">Layer&#45;wise Deployment DAG: 16 layers distributed across 16 GPUs</text>
<text text-anchor="middle" x="284.5" y="-2459.2" font-family="Times,serif" font-size="16.00">Each GPU holds one complete layer in SRAM/L2 cache</text>
<text text-anchor="middle" x="284.5" y="-2441.2" font-family="Times,serif" font-size="16.00">Inter&#45;GPU communication only between adjacent layers</text>
<g id="clust1" class="cluster">
<title>cluster_gpu_0</title>
<path fill="#ff6b6b" fill-opacity="0.125490" stroke="#ff6b6b" d="M181.75,-2242C181.75,-2242 317.75,-2242 317.75,-2242 323.75,-2242 329.75,-2248 329.75,-2254 329.75,-2254 329.75,-2325 329.75,-2325 329.75,-2331 323.75,-2337 317.75,-2337 317.75,-2337 181.75,-2337 181.75,-2337 175.75,-2337 169.75,-2331 169.75,-2325 169.75,-2325 169.75,-2254 169.75,-2254 169.75,-2248 175.75,-2242 181.75,-2242"/>
<text text-anchor="middle" x="249.75" y="-2320.2" font-family="Times,serif" font-size="16.00">GPU 0</text>
</g>
<g id="clust2" class="cluster">
<title>cluster_gpu_1</title>
<path fill="#4ecdc4" fill-opacity="0.125490" stroke="#4ecdc4" d="M181.75,-2099C181.75,-2099 317.75,-2099 317.75,-2099 323.75,-2099 329.75,-2105 329.75,-2111 329.75,-2111 329.75,-2182 329.75,-2182 329.75,-2188 323.75,-2194 317.75,-2194 317.75,-2194 181.75,-2194 181.75,-2194 175.75,-2194 169.75,-2188 169.75,-2182 169.75,-2182 169.75,-2111 169.75,-2111 169.75,-2105 175.75,-2099 181.75,-2099"/>
<text text-anchor="middle" x="249.75" y="-2177.2" font-family="Times,serif" font-size="16.00">GPU 1</text>
</g>
<g id="clust3" class="cluster">
<title>cluster_gpu_2</title>
<path fill="#45b7d1" fill-opacity="0.125490" stroke="#45b7d1" d="M181.75,-1956C181.75,-1956 317.75,-1956 317.75,-1956 323.75,-1956 329.75,-1962 329.75,-1968 329.75,-1968 329.75,-2039 329.75,-2039 329.75,-2045 323.75,-2051 317.75,-2051 317.75,-2051 181.75,-2051 181.75,-2051 175.75,-2051 169.75,-2045 169.75,-2039 169.75,-2039 169.75,-1968 169.75,-1968 169.75,-1962 175.75,-1956 181.75,-1956"/>
<text text-anchor="middle" x="249.75" y="-2034.2" font-family="Times,serif" font-size="16.00">GPU 2</text>
</g>
<g id="clust4" class="cluster">
<title>cluster_gpu_3</title>
<path fill="#96ceb4" fill-opacity="0.125490" stroke="#96ceb4" d="M181.75,-1813C181.75,-1813 317.75,-1813 317.75,-1813 323.75,-1813 329.75,-1819 329.75,-1825 329.75,-1825 329.75,-1896 329.75,-1896 329.75,-1902 323.75,-1908 317.75,-1908 317.75,-1908 181.75,-1908 181.75,-1908 175.75,-1908 169.75,-1902 169.75,-1896 169.75,-1896 169.75,-1825 169.75,-1825 169.75,-1819 175.75,-1813 181.75,-1813"/>
<text text-anchor="middle" x="249.75" y="-1891.2" font-family="Times,serif" font-size="16.00">GPU 3</text>
</g>
<g id="clust5" class="cluster">
<title>cluster_gpu_4</title>
<path fill="#feca57" fill-opacity="0.125490" stroke="#feca57" d="M181.75,-1670C181.75,-1670 317.75,-1670 317.75,-1670 323.75,-1670 329.75,-1676 329.75,-1682 329.75,-1682 329.75,-1753 329.75,-1753 329.75,-1759 323.75,-1765 317.75,-1765 317.75,-1765 181.75,-1765 181.75,-1765 175.75,-1765 169.75,-1759 169.75,-1753 169.75,-1753 169.75,-1682 169.75,-1682 169.75,-1676 175.75,-1670 181.75,-1670"/>
<text text-anchor="middle" x="249.75" y="-1748.2" font-family="Times,serif" font-size="16.00">GPU 4</text>
</g>
<g id="clust6" class="cluster">
<title>cluster_gpu_5</title>
<path fill="#ff9ff3" fill-opacity="0.125490" stroke="#ff9ff3" d="M181.75,-1527C181.75,-1527 317.75,-1527 317.75,-1527 323.75,-1527 329.75,-1533 329.75,-1539 329.75,-1539 329.75,-1610 329.75,-1610 329.75,-1616 323.75,-1622 317.75,-1622 317.75,-1622 181.75,-1622 181.75,-1622 175.75,-1622 169.75,-1616 169.75,-1610 169.75,-1610 169.75,-1539 169.75,-1539 169.75,-1533 175.75,-1527 181.75,-1527"/>
<text text-anchor="middle" x="249.75" y="-1605.2" font-family="Times,serif" font-size="16.00">GPU 5</text>
</g>
<g id="clust7" class="cluster">
<title>cluster_gpu_6</title>
<path fill="#54a0ff" fill-opacity="0.125490" stroke="#54a0ff" d="M181.75,-1384C181.75,-1384 317.75,-1384 317.75,-1384 323.75,-1384 329.75,-1390 329.75,-1396 329.75,-1396 329.75,-1467 329.75,-1467 329.75,-1473 323.75,-1479 317.75,-1479 317.75,-1479 181.75,-1479 181.75,-1479 175.75,-1479 169.75,-1473 169.75,-1467 169.75,-1467 169.75,-1396 169.75,-1396 169.75,-1390 175.75,-1384 181.75,-1384"/>
<text text-anchor="middle" x="249.75" y="-1462.2" font-family="Times,serif" font-size="16.00">GPU 6</text>
</g>
<g id="clust8" class="cluster">
<title>cluster_gpu_7</title>
<path fill="#5f27cd" fill-opacity="0.125490" stroke="#5f27cd" d="M181.75,-1241C181.75,-1241 317.75,-1241 317.75,-1241 323.75,-1241 329.75,-1247 329.75,-1253 329.75,-1253 329.75,-1324 329.75,-1324 329.75,-1330 323.75,-1336 317.75,-1336 317.75,-1336 181.75,-1336 181.75,-1336 175.75,-1336 169.75,-1330 169.75,-1324 169.75,-1324 169.75,-1253 169.75,-1253 169.75,-1247 175.75,-1241 181.75,-1241"/>
<text text-anchor="middle" x="249.75" y="-1319.2" font-family="Times,serif" font-size="16.00">GPU 7</text>
</g>
<g id="clust9" class="cluster">
<title>cluster_gpu_8</title>
<path fill="#00d2d3" fill-opacity="0.125490" stroke="#00d2d3" d="M181.75,-1098C181.75,-1098 317.75,-1098 317.75,-1098 323.75,-1098 329.75,-1104 329.75,-1110 329.75,-1110 329.75,-1181 329.75,-1181 329.75,-1187 323.75,-1193 317.75,-1193 317.75,-1193 181.75,-1193 181.75,-1193 175.75,-1193 169.75,-1187 169.75,-1181 169.75,-1181 169.75,-1110 169.75,-1110 169.75,-1104 175.75,-1098 181.75,-1098"/>
<text text-anchor="middle" x="249.75" y="-1176.2" font-family="Times,serif" font-size="16.00">GPU 8</text>
</g>
<g id="clust10" class="cluster">
<title>cluster_gpu_9</title>
<path fill="#ff9f43" fill-opacity="0.125490" stroke="#ff9f43" d="M181.75,-955C181.75,-955 317.75,-955 317.75,-955 323.75,-955 329.75,-961 329.75,-967 329.75,-967 329.75,-1038 329.75,-1038 329.75,-1044 323.75,-1050 317.75,-1050 317.75,-1050 181.75,-1050 181.75,-1050 175.75,-1050 169.75,-1044 169.75,-1038 169.75,-1038 169.75,-967 169.75,-967 169.75,-961 175.75,-955 181.75,-955"/>
<text text-anchor="middle" x="249.75" y="-1033.2" font-family="Times,serif" font-size="16.00">GPU 9</text>
</g>
<g id="clust11" class="cluster">
<title>cluster_gpu_10</title>
<path fill="#10ac84" fill-opacity="0.125490" stroke="#10ac84" d="M181.75,-812C181.75,-812 317.75,-812 317.75,-812 323.75,-812 329.75,-818 329.75,-824 329.75,-824 329.75,-895 329.75,-895 329.75,-901 323.75,-907 317.75,-907 317.75,-907 181.75,-907 181.75,-907 175.75,-907 169.75,-901 169.75,-895 169.75,-895 169.75,-824 169.75,-824 169.75,-818 175.75,-812 181.75,-812"/>
<text text-anchor="middle" x="249.75" y="-890.2" font-family="Times,serif" font-size="16.00">GPU 10</text>
</g>
<g id="clust12" class="cluster">
<title>cluster_gpu_11</title>
<path fill="#ee5a24" fill-opacity="0.125490" stroke="#ee5a24" d="M181.75,-669C181.75,-669 317.75,-669 317.75,-669 323.75,-669 329.75,-675 329.75,-681 329.75,-681 329.75,-752 329.75,-752 329.75,-758 323.75,-764 317.75,-764 317.75,-764 181.75,-764 181.75,-764 175.75,-764 169.75,-758 169.75,-752 169.75,-752 169.75,-681 169.75,-681 169.75,-675 175.75,-669 181.75,-669"/>
<text text-anchor="middle" x="249.75" y="-747.2" font-family="Times,serif" font-size="16.00">GPU 11</text>
</g>
<g id="clust13" class="cluster">
<title>cluster_gpu_12</title>
<path fill="#0652dd" fill-opacity="0.125490" stroke="#0652dd" d="M181.75,-526C181.75,-526 317.75,-526 317.75,-526 323.75,-526 329.75,-532 329.75,-538 329.75,-538 329.75,-609 329.75,-609 329.75,-615 323.75,-621 317.75,-621 317.75,-621 181.75,-621 181.75,-621 175.75,-621 169.75,-615 169.75,-609 169.75,-609 169.75,-538 169.75,-538 169.75,-532 175.75,-526 181.75,-526"/>
<text text-anchor="middle" x="249.75" y="-604.2" font-family="Times,serif" font-size="16.00">GPU 12</text>
</g>
<g id="clust14" class="cluster">
<title>cluster_gpu_13</title>
<path fill="#9980fa" fill-opacity="0.125490" stroke="#9980fa" d="M181.75,-383C181.75,-383 317.75,-383 317.75,-383 323.75,-383 329.75,-389 329.75,-395 329.75,-395 329.75,-466 329.75,-466 329.75,-472 323.75,-478 317.75,-478 317.75,-478 181.75,-478 181.75,-478 175.75,-478 169.75,-472 169.75,-466 169.75,-466 169.75,-395 169.75,-395 169.75,-389 175.75,-383 181.75,-383"/>
<text text-anchor="middle" x="249.75" y="-461.2" font-family="Times,serif" font-size="16.00">GPU 13</text>
</g>
<g id="clust15" class="cluster">
<title>cluster_gpu_14</title>
<path fill="#d63031" fill-opacity="0.125490" stroke="#d63031" d="M181.75,-240C181.75,-240 317.75,-240 317.75,-240 323.75,-240 329.75,-246 329.75,-252 329.75,-252 329.75,-323 329.75,-323 329.75,-329 323.75,-335 317.75,-335 317.75,-335 181.75,-335 181.75,-335 175.75,-335 169.75,-329 169.75,-323 169.75,-323 169.75,-252 169.75,-252 169.75,-246 175.75,-240 181.75,-240"/>
<text text-anchor="middle" x="249.75" y="-318.2" font-family="Times,serif" font-size="16.00">GPU 14</text>
</g>
<g id="clust16" class="cluster">
<title>cluster_gpu_15</title>
<path fill="#74b9ff" fill-opacity="0.125490" stroke="#74b9ff" d="M181.75,-97C181.75,-97 317.75,-97 317.75,-97 323.75,-97 329.75,-103 329.75,-109 329.75,-109 329.75,-180 329.75,-180 329.75,-186 323.75,-192 317.75,-192 317.75,-192 181.75,-192 181.75,-192 175.75,-192 169.75,-186 169.75,-180 169.75,-180 169.75,-109 169.75,-109 169.75,-103 175.75,-97 181.75,-97"/>
<text text-anchor="middle" x="249.75" y="-175.2" font-family="Times,serif" font-size="16.00">GPU 15</text>
</g>
<!-- L1_GPU0 -->
<g id="node1" class="node">
<title>L1_GPU0</title>
<polygon fill="#ff6b6b" stroke="black" points="321.25,-2303 178.25,-2303 178.25,-2250 321.25,-2250 321.25,-2303"/>
<text text-anchor="middle" x="249.75" y="-2287.8" font-family="Times,serif" font-size="14.00">Layer 1</text>
<text text-anchor="middle" x="249.75" y="-2272.8" font-family="Times,serif" font-size="14.00">GPU 0</text>
<text text-anchor="middle" x="249.75" y="-2257.8" font-family="Times,serif" font-size="14.00">Dense/MoE Layer</text>
</g>
<!-- L2_GPU1 -->
<g id="node2" class="node">
<title>L2_GPU1</title>
<polygon fill="#4ecdc4" stroke="black" points="321.25,-2160 178.25,-2160 178.25,-2107 321.25,-2107 321.25,-2160"/>
<text text-anchor="middle" x="249.75" y="-2144.8" font-family="Times,serif" font-size="14.00">Layer 2</text>
<text text-anchor="middle" x="249.75" y="-2129.8" font-family="Times,serif" font-size="14.00">GPU 1</text>
<text text-anchor="middle" x="249.75" y="-2114.8" font-family="Times,serif" font-size="14.00">Dense/MoE Layer</text>
</g>
<!-- L1_GPU0&#45;&gt;L2_GPU1 -->
<g id="edge1" class="edge">
<title>L1_GPU0&#45;&gt;L2_GPU1</title>
<path fill="none" stroke="black" stroke-width="2" d="M249.75,-2249.97C249.75,-2227.75 249.75,-2195.3 249.75,-2170.45"/>
<polygon fill="black" stroke="black" stroke-width="2" points="253.25,-2170.32 249.75,-2160.32 246.25,-2170.32 253.25,-2170.32"/>
<text text-anchor="middle" x="342.25" y="-2220.8" font-family="Times,serif" font-size="14.00">activation transfer</text>
<text text-anchor="middle" x="342.25" y="-2205.8" font-family="Times,serif" font-size="14.00">inter&#45;GPU communication</text>
</g>
<!-- L3_GPU2 -->
<g id="node3" class="node">
<title>L3_GPU2</title>
<polygon fill="#45b7d1" stroke="black" points="321.25,-2017 178.25,-2017 178.25,-1964 321.25,-1964 321.25,-2017"/>
<text text-anchor="middle" x="249.75" y="-2001.8" font-family="Times,serif" font-size="14.00">Layer 3</text>
<text text-anchor="middle" x="249.75" y="-1986.8" font-family="Times,serif" font-size="14.00">GPU 2</text>
<text text-anchor="middle" x="249.75" y="-1971.8" font-family="Times,serif" font-size="14.00">Dense/MoE Layer</text>
</g>
<!-- L2_GPU1&#45;&gt;L3_GPU2 -->
<g id="edge2" class="edge">
<title>L2_GPU1&#45;&gt;L3_GPU2</title>
<path fill="none" stroke="black" stroke-width="2" d="M249.75,-2106.97C249.75,-2084.75 249.75,-2052.3 249.75,-2027.45"/>
<polygon fill="black" stroke="black" stroke-width="2" points="253.25,-2027.32 249.75,-2017.32 246.25,-2027.32 253.25,-2027.32"/>
<text text-anchor="middle" x="342.25" y="-2077.8" font-family="Times,serif" font-size="14.00">activation transfer</text>
<text text-anchor="middle" x="342.25" y="-2062.8" font-family="Times,serif" font-size="14.00">inter&#45;GPU communication</text>
</g>
<!-- L4_GPU3 -->
<g id="node4" class="node">
<title>L4_GPU3</title>
<polygon fill="#96ceb4" stroke="black" points="321.25,-1874 178.25,-1874 178.25,-1821 321.25,-1821 321.25,-1874"/>
<text text-anchor="middle" x="249.75" y="-1858.8" font-family="Times,serif" font-size="14.00">Layer 4</text>
<text text-anchor="middle" x="249.75" y="-1843.8" font-family="Times,serif" font-size="14.00">GPU 3</text>
<text text-anchor="middle" x="249.75" y="-1828.8" font-family="Times,serif" font-size="14.00">Dense/MoE Layer</text>
</g>
<!-- L3_GPU2&#45;&gt;L4_GPU3 -->
<g id="edge3" class="edge">
<title>L3_GPU2&#45;&gt;L4_GPU3</title>
<path fill="none" stroke="black" stroke-width="2" d="M249.75,-1963.97C249.75,-1941.75 249.75,-1909.3 249.75,-1884.45"/>
<polygon fill="black" stroke="black" stroke-width="2" points="253.25,-1884.32 249.75,-1874.32 246.25,-1884.32 253.25,-1884.32"/>
<text text-anchor="middle" x="342.25" y="-1934.8" font-family="Times,serif" font-size="14.00">activation transfer</text>
<text text-anchor="middle" x="342.25" y="-1919.8" font-family="Times,serif" font-size="14.00">inter&#45;GPU communication</text>
</g>
<!-- L5_GPU4 -->
<g id="node5" class="node">
<title>L5_GPU4</title>
<polygon fill="#feca57" stroke="black" points="321.25,-1731 178.25,-1731 178.25,-1678 321.25,-1678 321.25,-1731"/>
<text text-anchor="middle" x="249.75" y="-1715.8" font-family="Times,serif" font-size="14.00">Layer 5</text>
<text text-anchor="middle" x="249.75" y="-1700.8" font-family="Times,serif" font-size="14.00">GPU 4</text>
<text text-anchor="middle" x="249.75" y="-1685.8" font-family="Times,serif" font-size="14.00">Dense/MoE Layer</text>
</g>
<!-- L4_GPU3&#45;&gt;L5_GPU4 -->
<g id="edge4" class="edge">
<title>L4_GPU3&#45;&gt;L5_GPU4</title>
<path fill="none" stroke="black" stroke-width="2" d="M249.75,-1820.97C249.75,-1798.75 249.75,-1766.3 249.75,-1741.45"/>
<polygon fill="black" stroke="black" stroke-width="2" points="253.25,-1741.32 249.75,-1731.32 246.25,-1741.32 253.25,-1741.32"/>
<text text-anchor="middle" x="342.25" y="-1791.8" font-family="Times,serif" font-size="14.00">activation transfer</text>
<text text-anchor="middle" x="342.25" y="-1776.8" font-family="Times,serif" font-size="14.00">inter&#45;GPU communication</text>
</g>
<!-- L6_GPU5 -->
<g id="node6" class="node">
<title>L6_GPU5</title>
<polygon fill="#ff9ff3" stroke="black" points="321.25,-1588 178.25,-1588 178.25,-1535 321.25,-1535 321.25,-1588"/>
<text text-anchor="middle" x="249.75" y="-1572.8" font-family="Times,serif" font-size="14.00">Layer 6</text>
<text text-anchor="middle" x="249.75" y="-1557.8" font-family="Times,serif" font-size="14.00">GPU 5</text>
<text text-anchor="middle" x="249.75" y="-1542.8" font-family="Times,serif" font-size="14.00">Dense/MoE Layer</text>
</g>
<!-- L5_GPU4&#45;&gt;L6_GPU5 -->
<g id="edge5" class="edge">
<title>L5_GPU4&#45;&gt;L6_GPU5</title>
<path fill="none" stroke="black" stroke-width="2" d="M249.75,-1677.97C249.75,-1655.75 249.75,-1623.3 249.75,-1598.45"/>
<polygon fill="black" stroke="black" stroke-width="2" points="253.25,-1598.32 249.75,-1588.32 246.25,-1598.32 253.25,-1598.32"/>
<text text-anchor="middle" x="342.25" y="-1648.8" font-family="Times,serif" font-size="14.00">activation transfer</text>
<text text-anchor="middle" x="342.25" y="-1633.8" font-family="Times,serif" font-size="14.00">inter&#45;GPU communication</text>
</g>
<!-- L7_GPU6 -->
<g id="node7" class="node">
<title>L7_GPU6</title>
<polygon fill="#54a0ff" stroke="black" points="321.25,-1445 178.25,-1445 178.25,-1392 321.25,-1392 321.25,-1445"/>
<text text-anchor="middle" x="249.75" y="-1429.8" font-family="Times,serif" font-size="14.00">Layer 7</text>
<text text-anchor="middle" x="249.75" y="-1414.8" font-family="Times,serif" font-size="14.00">GPU 6</text>
<text text-anchor="middle" x="249.75" y="-1399.8" font-family="Times,serif" font-size="14.00">Dense/MoE Layer</text>
</g>
<!-- L6_GPU5&#45;&gt;L7_GPU6 -->
<g id="edge6" class="edge">
<title>L6_GPU5&#45;&gt;L7_GPU6</title>
<path fill="none" stroke="black" stroke-width="2" d="M249.75,-1534.97C249.75,-1512.75 249.75,-1480.3 249.75,-1455.45"/>
<polygon fill="black" stroke="black" stroke-width="2" points="253.25,-1455.32 249.75,-1445.32 246.25,-1455.32 253.25,-1455.32"/>
<text text-anchor="middle" x="342.25" y="-1505.8" font-family="Times,serif" font-size="14.00">activation transfer</text>
<text text-anchor="middle" x="342.25" y="-1490.8" font-family="Times,serif" font-size="14.00">inter&#45;GPU communication</text>
</g>
<!-- L8_GPU7 -->
<g id="node8" class="node">
<title>L8_GPU7</title>
<polygon fill="#5f27cd" stroke="black" points="321.25,-1302 178.25,-1302 178.25,-1249 321.25,-1249 321.25,-1302"/>
<text text-anchor="middle" x="249.75" y="-1286.8" font-family="Times,serif" font-size="14.00">Layer 8</text>
<text text-anchor="middle" x="249.75" y="-1271.8" font-family="Times,serif" font-size="14.00">GPU 7</text>
<text text-anchor="middle" x="249.75" y="-1256.8" font-family="Times,serif" font-size="14.00">Dense/MoE Layer</text>
</g>
<!-- L7_GPU6&#45;&gt;L8_GPU7 -->
<g id="edge7" class="edge">
<title>L7_GPU6&#45;&gt;L8_GPU7</title>
<path fill="none" stroke="black" stroke-width="2" d="M249.75,-1391.97C249.75,-1369.75 249.75,-1337.3 249.75,-1312.45"/>
<polygon fill="black" stroke="black" stroke-width="2" points="253.25,-1312.32 249.75,-1302.32 246.25,-1312.32 253.25,-1312.32"/>
<text text-anchor="middle" x="342.25" y="-1362.8" font-family="Times,serif" font-size="14.00">activation transfer</text>
<text text-anchor="middle" x="342.25" y="-1347.8" font-family="Times,serif" font-size="14.00">inter&#45;GPU communication</text>
</g>
<!-- L9_GPU8 -->
<g id="node9" class="node">
<title>L9_GPU8</title>
<polygon fill="#00d2d3" stroke="black" points="321.25,-1159 178.25,-1159 178.25,-1106 321.25,-1106 321.25,-1159"/>
<text text-anchor="middle" x="249.75" y="-1143.8" font-family="Times,serif" font-size="14.00">Layer 9</text>
<text text-anchor="middle" x="249.75" y="-1128.8" font-family="Times,serif" font-size="14.00">GPU 8</text>
<text text-anchor="middle" x="249.75" y="-1113.8" font-family="Times,serif" font-size="14.00">Dense/MoE Layer</text>
</g>
<!-- L8_GPU7&#45;&gt;L9_GPU8 -->
<g id="edge8" class="edge">
<title>L8_GPU7&#45;&gt;L9_GPU8</title>
<path fill="none" stroke="black" stroke-width="2" d="M249.75,-1248.97C249.75,-1226.75 249.75,-1194.3 249.75,-1169.45"/>
<polygon fill="black" stroke="black" stroke-width="2" points="253.25,-1169.32 249.75,-1159.32 246.25,-1169.32 253.25,-1169.32"/>
<text text-anchor="middle" x="342.25" y="-1219.8" font-family="Times,serif" font-size="14.00">activation transfer</text>
<text text-anchor="middle" x="342.25" y="-1204.8" font-family="Times,serif" font-size="14.00">inter&#45;GPU communication</text>
</g>
<!-- L10_GPU9 -->
<g id="node10" class="node">
<title>L10_GPU9</title>
<polygon fill="#ff9f43" stroke="black" points="321.25,-1016 178.25,-1016 178.25,-963 321.25,-963 321.25,-1016"/>
<text text-anchor="middle" x="249.75" y="-1000.8" font-family="Times,serif" font-size="14.00">Layer 10</text>
<text text-anchor="middle" x="249.75" y="-985.8" font-family="Times,serif" font-size="14.00">GPU 9</text>
<text text-anchor="middle" x="249.75" y="-970.8" font-family="Times,serif" font-size="14.00">Dense/MoE Layer</text>
</g>
<!-- L9_GPU8&#45;&gt;L10_GPU9 -->
<g id="edge9" class="edge">
<title>L9_GPU8&#45;&gt;L10_GPU9</title>
<path fill="none" stroke="black" stroke-width="2" d="M249.75,-1105.97C249.75,-1083.75 249.75,-1051.3 249.75,-1026.45"/>
<polygon fill="black" stroke="black" stroke-width="2" points="253.25,-1026.32 249.75,-1016.32 246.25,-1026.32 253.25,-1026.32"/>
<text text-anchor="middle" x="342.25" y="-1076.8" font-family="Times,serif" font-size="14.00">activation transfer</text>
<text text-anchor="middle" x="342.25" y="-1061.8" font-family="Times,serif" font-size="14.00">inter&#45;GPU communication</text>
</g>
<!-- L11_GPU10 -->
<g id="node11" class="node">
<title>L11_GPU10</title>
<polygon fill="#10ac84" stroke="black" points="321.25,-873 178.25,-873 178.25,-820 321.25,-820 321.25,-873"/>
<text text-anchor="middle" x="249.75" y="-857.8" font-family="Times,serif" font-size="14.00">Layer 11</text>
<text text-anchor="middle" x="249.75" y="-842.8" font-family="Times,serif" font-size="14.00">GPU 10</text>
<text text-anchor="middle" x="249.75" y="-827.8" font-family="Times,serif" font-size="14.00">Dense/MoE Layer</text>
</g>
<!-- L10_GPU9&#45;&gt;L11_GPU10 -->
<g id="edge10" class="edge">
<title>L10_GPU9&#45;&gt;L11_GPU10</title>
<path fill="none" stroke="black" stroke-width="2" d="M249.75,-962.97C249.75,-940.75 249.75,-908.3 249.75,-883.45"/>
<polygon fill="black" stroke="black" stroke-width="2" points="253.25,-883.32 249.75,-873.32 246.25,-883.32 253.25,-883.32"/>
<text text-anchor="middle" x="342.25" y="-933.8" font-family="Times,serif" font-size="14.00">activation transfer</text>
<text text-anchor="middle" x="342.25" y="-918.8" font-family="Times,serif" font-size="14.00">inter&#45;GPU communication</text>
</g>
<!-- L12_GPU11 -->
<g id="node12" class="node">
<title>L12_GPU11</title>
<polygon fill="#ee5a24" stroke="black" points="321.25,-730 178.25,-730 178.25,-677 321.25,-677 321.25,-730"/>
<text text-anchor="middle" x="249.75" y="-714.8" font-family="Times,serif" font-size="14.00">Layer 12</text>
<text text-anchor="middle" x="249.75" y="-699.8" font-family="Times,serif" font-size="14.00">GPU 11</text>
<text text-anchor="middle" x="249.75" y="-684.8" font-family="Times,serif" font-size="14.00">Dense/MoE Layer</text>
</g>
<!-- L11_GPU10&#45;&gt;L12_GPU11 -->
<g id="edge11" class="edge">
<title>L11_GPU10&#45;&gt;L12_GPU11</title>
<path fill="none" stroke="black" stroke-width="2" d="M249.75,-819.97C249.75,-797.75 249.75,-765.3 249.75,-740.45"/>
<polygon fill="black" stroke="black" stroke-width="2" points="253.25,-740.32 249.75,-730.32 246.25,-740.32 253.25,-740.32"/>
<text text-anchor="middle" x="342.25" y="-790.8" font-family="Times,serif" font-size="14.00">activation transfer</text>
<text text-anchor="middle" x="342.25" y="-775.8" font-family="Times,serif" font-size="14.00">inter&#45;GPU communication</text>
</g>
<!-- L13_GPU12 -->
<g id="node13" class="node">
<title>L13_GPU12</title>
<polygon fill="#0652dd" stroke="black" points="321.25,-587 178.25,-587 178.25,-534 321.25,-534 321.25,-587"/>
<text text-anchor="middle" x="249.75" y="-571.8" font-family="Times,serif" font-size="14.00">Layer 13</text>
<text text-anchor="middle" x="249.75" y="-556.8" font-family="Times,serif" font-size="14.00">GPU 12</text>
<text text-anchor="middle" x="249.75" y="-541.8" font-family="Times,serif" font-size="14.00">Dense/MoE Layer</text>
</g>
<!-- L12_GPU11&#45;&gt;L13_GPU12 -->
<g id="edge12" class="edge">
<title>L12_GPU11&#45;&gt;L13_GPU12</title>
<path fill="none" stroke="black" stroke-width="2" d="M249.75,-676.97C249.75,-654.75 249.75,-622.3 249.75,-597.45"/>
<polygon fill="black" stroke="black" stroke-width="2" points="253.25,-597.32 249.75,-587.32 246.25,-597.32 253.25,-597.32"/>
<text text-anchor="middle" x="342.25" y="-647.8" font-family="Times,serif" font-size="14.00">activation transfer</text>
<text text-anchor="middle" x="342.25" y="-632.8" font-family="Times,serif" font-size="14.00">inter&#45;GPU communication</text>
</g>
<!-- L14_GPU13 -->
<g id="node14" class="node">
<title>L14_GPU13</title>
<polygon fill="#9980fa" stroke="black" points="321.25,-444 178.25,-444 178.25,-391 321.25,-391 321.25,-444"/>
<text text-anchor="middle" x="249.75" y="-428.8" font-family="Times,serif" font-size="14.00">Layer 14</text>
<text text-anchor="middle" x="249.75" y="-413.8" font-family="Times,serif" font-size="14.00">GPU 13</text>
<text text-anchor="middle" x="249.75" y="-398.8" font-family="Times,serif" font-size="14.00">Dense/MoE Layer</text>
</g>
<!-- L13_GPU12&#45;&gt;L14_GPU13 -->
<g id="edge13" class="edge">
<title>L13_GPU12&#45;&gt;L14_GPU13</title>
<path fill="none" stroke="black" stroke-width="2" d="M249.75,-533.97C249.75,-511.75 249.75,-479.3 249.75,-454.45"/>
<polygon fill="black" stroke="black" stroke-width="2" points="253.25,-454.32 249.75,-444.32 246.25,-454.32 253.25,-454.32"/>
<text text-anchor="middle" x="342.25" y="-504.8" font-family="Times,serif" font-size="14.00">activation transfer</text>
<text text-anchor="middle" x="342.25" y="-489.8" font-family="Times,serif" font-size="14.00">inter&#45;GPU communication</text>
</g>
<!-- L15_GPU14 -->
<g id="node15" class="node">
<title>L15_GPU14</title>
<polygon fill="#d63031" stroke="black" points="321.25,-301 178.25,-301 178.25,-248 321.25,-248 321.25,-301"/>
<text text-anchor="middle" x="249.75" y="-285.8" font-family="Times,serif" font-size="14.00">Layer 15</text>
<text text-anchor="middle" x="249.75" y="-270.8" font-family="Times,serif" font-size="14.00">GPU 14</text>
<text text-anchor="middle" x="249.75" y="-255.8" font-family="Times,serif" font-size="14.00">Dense/MoE Layer</text>
</g>
<!-- L14_GPU13&#45;&gt;L15_GPU14 -->
<g id="edge14" class="edge">
<title>L14_GPU13&#45;&gt;L15_GPU14</title>
<path fill="none" stroke="black" stroke-width="2" d="M249.75,-390.97C249.75,-368.75 249.75,-336.3 249.75,-311.45"/>
<polygon fill="black" stroke="black" stroke-width="2" points="253.25,-311.32 249.75,-301.32 246.25,-311.32 253.25,-311.32"/>
<text text-anchor="middle" x="342.25" y="-361.8" font-family="Times,serif" font-size="14.00">activation transfer</text>
<text text-anchor="middle" x="342.25" y="-346.8" font-family="Times,serif" font-size="14.00">inter&#45;GPU communication</text>
</g>
<!-- L16_GPU15 -->
<g id="node16" class="node">
<title>L16_GPU15</title>
<polygon fill="#74b9ff" stroke="black" points="321.25,-158 178.25,-158 178.25,-105 321.25,-105 321.25,-158"/>
<text text-anchor="middle" x="249.75" y="-142.8" font-family="Times,serif" font-size="14.00">Layer 16</text>
<text text-anchor="middle" x="249.75" y="-127.8" font-family="Times,serif" font-size="14.00">GPU 15</text>
<text text-anchor="middle" x="249.75" y="-112.8" font-family="Times,serif" font-size="14.00">Dense/MoE Layer</text>
</g>
<!-- L15_GPU14&#45;&gt;L16_GPU15 -->
<g id="edge15" class="edge">
<title>L15_GPU14&#45;&gt;L16_GPU15</title>
<path fill="none" stroke="black" stroke-width="2" d="M249.75,-247.97C249.75,-225.75 249.75,-193.3 249.75,-168.45"/>
<polygon fill="black" stroke="black" stroke-width="2" points="253.25,-168.32 249.75,-158.32 246.25,-168.32 253.25,-168.32"/>
<text text-anchor="middle" x="342.25" y="-218.8" font-family="Times,serif" font-size="14.00">activation transfer</text>
<text text-anchor="middle" x="342.25" y="-203.8" font-family="Times,serif" font-size="14.00">inter&#45;GPU communication</text>
</g>
<!-- Output -->
<g id="node17" class="node">
<title>Output</title>
<ellipse fill="lightblue" stroke="black" cx="249.75" cy="-27" rx="115.5" ry="27"/>
<text text-anchor="middle" x="249.75" y="-30.8" font-family="Times,serif" font-size="14.00">Model Output</text>
<text text-anchor="middle" x="249.75" y="-15.8" font-family="Times,serif" font-size="14.00">(Batch=1024, FP16)</text>
</g>
<!-- L16_GPU15&#45;&gt;Output -->
<g id="edge16" class="edge">
<title>L16_GPU15&#45;&gt;Output</title>
<path fill="none" stroke="blue" d="M249.75,-104.9C249.75,-92.73 249.75,-77.97 249.75,-64.65"/>
<polygon fill="blue" stroke="blue" points="253.25,-64.34 249.75,-54.34 246.25,-64.34 253.25,-64.34"/>
<text text-anchor="middle" x="291.25" y="-75.8" font-family="Times,serif" font-size="14.00">final output</text>
</g>
<!-- Input -->
<g id="node18" class="node">
<title>Input</title>
<ellipse fill="lightgreen" stroke="black" cx="249.75" cy="-2405" rx="115.5" ry="27"/>
<text text-anchor="middle" x="249.75" y="-2408.8" font-family="Times,serif" font-size="14.00">Model Input</text>
<text text-anchor="middle" x="249.75" y="-2393.8" font-family="Times,serif" font-size="14.00">(Batch=1024, FP16)</text>
</g>
<!-- Input&#45;&gt;L1_GPU0 -->
<g id="edge17" class="edge">
<title>Input&#45;&gt;L1_GPU0</title>
<path fill="none" stroke="green" d="M249.75,-2377.79C249.75,-2359.18 249.75,-2333.96 249.75,-2313.47"/>
<polygon fill="green" stroke="green" points="253.25,-2313.24 249.75,-2303.24 246.25,-2313.24 253.25,-2313.24"/>
<text text-anchor="middle" x="286.75" y="-2348.8" font-family="Times,serif" font-size="14.00">input data</text>
</g>
</g>
</svg>
