<?xml version="1.0" encoding="UTF-8" standalone="no"?>
<!DOCTYPE svg PUBLIC "-//W3C//DTD SVG 1.1//EN"
 "http://www.w3.org/Graphics/SVG/1.1/DTD/svg11.dtd">
<!-- Generated by graphviz version 2.43.0 (0)
 -->
<!-- Title: Layer0_layer_wise Pages: 1 -->
<svg width="1080pt" height="83pt"
 viewBox="0.00 0.00 1080.00 83.26" xmlns="http://www.w3.org/2000/svg" xmlns:xlink="http://www.w3.org/1999/xlink">
<g id="graph0" class="graph" transform="scale(0.28 0.28) rotate(0) translate(4 297.95)">
<title>Layer0_layer_wise</title>
<polygon fill="white" stroke="transparent" points="-4,4 -4,-297.95 3912.91,-297.95 3912.91,4 -4,4"/>
<!-- input -->
<g id="node1" class="node">
<title>input</title>
<ellipse fill="none" stroke="black" cx="79.9" cy="-37.48" rx="79.81" ry="26.74"/>
<text text-anchor="middle" x="79.9" y="-41.28" font-family="Times,serif" font-size="14.00">Layer 0 Input</text>
<text text-anchor="middle" x="79.9" y="-26.28" font-family="Times,serif" font-size="14.00">[1024, 8192]</text>
</g>
<!-- layernorm1 -->
<g id="node2" class="node">
<title>layernorm1</title>
<ellipse fill="none" stroke="black" cx="352.08" cy="-116.48" rx="156.04" ry="37.45"/>
<text text-anchor="middle" x="352.08" y="-127.78" font-family="Times,serif" font-size="14.00">LayerNorm</text>
<text text-anchor="middle" x="352.08" y="-112.78" font-family="Times,serif" font-size="14.00">[1024, 8192] → [1024, 8192]</text>
<text text-anchor="middle" x="352.08" y="-97.78" font-family="Times,serif" font-size="14.00">GPU 0</text>
</g>
<!-- input&#45;&gt;layernorm1 -->
<g id="edge1" class="edge">
<title>input&#45;&gt;layernorm1</title>
<path fill="none" stroke="black" d="M140.86,-55.01C170.78,-63.76 207.89,-74.61 242.58,-84.75"/>
<polygon fill="black" stroke="black" points="241.71,-88.14 252.29,-87.59 243.67,-81.42 241.71,-88.14"/>
</g>
<!-- residual1 -->
<g id="node8" class="node">
<title>residual1</title>
<ellipse fill="none" stroke="black" cx="1746.24" cy="-37.48" rx="156.04" ry="37.45"/>
<text text-anchor="middle" x="1746.24" y="-48.78" font-family="Times,serif" font-size="14.00">Residual Add</text>
<text text-anchor="middle" x="1746.24" y="-33.78" font-family="Times,serif" font-size="14.00">[1024, 8192] + [1024, 8192]</text>
<text text-anchor="middle" x="1746.24" y="-18.78" font-family="Times,serif" font-size="14.00">GPU 0</text>
</g>
<!-- input&#45;&gt;residual1 -->
<g id="edge10" class="edge">
<title>input&#45;&gt;residual1</title>
<path fill="none" stroke="black" d="M157.52,-30.96C274.36,-21.61 504.13,-5.48 699.62,-5.48 699.62,-5.48 699.62,-5.48 1050.16,-5.48 1234.34,-5.48 1445.68,-16.83 1586.51,-26.01"/>
<polygon fill="black" stroke="black" points="1586.31,-29.5 1596.52,-26.67 1586.77,-22.52 1586.31,-29.5"/>
</g>
<!-- q_proj -->
<g id="node3" class="node">
<title>q_proj</title>
<ellipse fill="none" stroke="black" cx="700.62" cy="-256.48" rx="156.04" ry="37.45"/>
<text text-anchor="middle" x="700.62" y="-267.78" font-family="Times,serif" font-size="14.00">Q Projection</text>
<text text-anchor="middle" x="700.62" y="-252.78" font-family="Times,serif" font-size="14.00">[1024, 8192] → [1024, 8192]</text>
<text text-anchor="middle" x="700.62" y="-237.78" font-family="Times,serif" font-size="14.00">GPU 0</text>
</g>
<!-- layernorm1&#45;&gt;q_proj -->
<g id="edge2" class="edge">
<title>layernorm1&#45;&gt;q_proj</title>
<path fill="none" stroke="black" d="M417,-150.72C453.64,-169.54 500.85,-192.44 544.35,-209.48 558.33,-214.95 573.23,-220.19 588.04,-225.04"/>
<polygon fill="black" stroke="black" points="587.17,-228.44 597.76,-228.18 589.32,-221.77 587.17,-228.44"/>
</g>
<!-- k_proj -->
<g id="node4" class="node">
<title>k_proj</title>
<ellipse fill="none" stroke="black" cx="700.62" cy="-163.48" rx="156.04" ry="37.45"/>
<text text-anchor="middle" x="700.62" y="-174.78" font-family="Times,serif" font-size="14.00">K Projection</text>
<text text-anchor="middle" x="700.62" y="-159.78" font-family="Times,serif" font-size="14.00">[1024, 8192] → [1024, 8192]</text>
<text text-anchor="middle" x="700.62" y="-144.78" font-family="Times,serif" font-size="14.00">GPU 0</text>
</g>
<!-- layernorm1&#45;&gt;k_proj -->
<g id="edge3" class="edge">
<title>layernorm1&#45;&gt;k_proj</title>
<path fill="none" stroke="black" d="M488.55,-134.85C510.11,-137.77 532.5,-140.81 554.28,-143.77"/>
<polygon fill="black" stroke="black" points="553.86,-147.24 564.24,-145.12 554.8,-140.3 553.86,-147.24"/>
</g>
<!-- v_proj -->
<g id="node5" class="node">
<title>v_proj</title>
<ellipse fill="none" stroke="black" cx="700.62" cy="-70.48" rx="156.04" ry="37.45"/>
<text text-anchor="middle" x="700.62" y="-81.78" font-family="Times,serif" font-size="14.00">V Projection</text>
<text text-anchor="middle" x="700.62" y="-66.78" font-family="Times,serif" font-size="14.00">[1024, 8192] → [1024, 8192]</text>
<text text-anchor="middle" x="700.62" y="-51.78" font-family="Times,serif" font-size="14.00">GPU 0</text>
</g>
<!-- layernorm1&#45;&gt;v_proj -->
<g id="edge4" class="edge">
<title>layernorm1&#45;&gt;v_proj</title>
<path fill="none" stroke="black" d="M489.04,-98.43C510.16,-95.63 532.05,-92.72 553.39,-89.89"/>
<polygon fill="black" stroke="black" points="554.02,-93.33 563.47,-88.55 553.1,-86.39 554.02,-93.33"/>
</g>
<!-- attention -->
<g id="node6" class="node">
<title>attention</title>
<ellipse fill="none" stroke="black" cx="1049.16" cy="-139.48" rx="156.04" ry="37.45"/>
<text text-anchor="middle" x="1049.16" y="-150.78" font-family="Times,serif" font-size="14.00">Multi&#45;Head Attention</text>
<text text-anchor="middle" x="1049.16" y="-135.78" font-family="Times,serif" font-size="14.00">[1024, 8192] → [1024, 8192]</text>
<text text-anchor="middle" x="1049.16" y="-120.78" font-family="Times,serif" font-size="14.00">GPU 0</text>
</g>
<!-- q_proj&#45;&gt;attention -->
<g id="edge5" class="edge">
<title>q_proj&#45;&gt;attention</title>
<path fill="none" stroke="black" d="M800.45,-227.48C819.25,-221.7 838.72,-215.54 856.89,-209.48 889.11,-198.71 924.08,-186.17 955.2,-174.7"/>
<polygon fill="black" stroke="black" points="956.56,-177.93 964.73,-171.18 954.13,-171.36 956.56,-177.93"/>
</g>
<!-- k_proj&#45;&gt;attention -->
<g id="edge6" class="edge">
<title>k_proj&#45;&gt;attention</title>
<path fill="none" stroke="black" d="M850.85,-153.14C863.36,-152.28 876.04,-151.4 888.63,-150.53"/>
<polygon fill="black" stroke="black" points="888.96,-154.01 898.69,-149.83 888.47,-147.03 888.96,-154.01"/>
</g>
<!-- v_proj&#45;&gt;attention -->
<g id="edge7" class="edge">
<title>v_proj&#45;&gt;attention</title>
<path fill="none" stroke="black" d="M821.36,-94.32C852.74,-100.57 886.72,-107.33 918.59,-113.68"/>
<polygon fill="black" stroke="black" points="917.92,-117.11 928.41,-115.63 919.29,-110.25 917.92,-117.11"/>
</g>
<!-- out_proj -->
<g id="node7" class="node">
<title>out_proj</title>
<ellipse fill="none" stroke="black" cx="1397.7" cy="-116.48" rx="156.04" ry="37.45"/>
<text text-anchor="middle" x="1397.7" y="-127.78" font-family="Times,serif" font-size="14.00">Output Projection</text>
<text text-anchor="middle" x="1397.7" y="-112.78" font-family="Times,serif" font-size="14.00">[1024, 8192] → [1024, 8192]</text>
<text text-anchor="middle" x="1397.7" y="-97.78" font-family="Times,serif" font-size="14.00">GPU 0</text>
</g>
<!-- attention&#45;&gt;out_proj -->
<g id="edge8" class="edge">
<title>attention&#45;&gt;out_proj</title>
<path fill="none" stroke="black" d="M1199.89,-129.54C1212.05,-128.73 1224.36,-127.91 1236.58,-127.1"/>
<polygon fill="black" stroke="black" points="1237.08,-130.58 1246.83,-126.42 1236.62,-123.59 1237.08,-130.58"/>
</g>
<!-- out_proj&#45;&gt;residual1 -->
<g id="edge9" class="edge">
<title>out_proj&#45;&gt;residual1</title>
<path fill="none" stroke="black" d="M1511.69,-90.72C1547.08,-82.65 1586.3,-73.71 1622.33,-65.5"/>
<polygon fill="black" stroke="black" points="1623.43,-68.84 1632.4,-63.2 1621.88,-62.01 1623.43,-68.84"/>
</g>
<!-- layernorm2 -->
<g id="node9" class="node">
<title>layernorm2</title>
<ellipse fill="none" stroke="black" cx="2094.78" cy="-70.48" rx="156.04" ry="37.45"/>
<text text-anchor="middle" x="2094.78" y="-81.78" font-family="Times,serif" font-size="14.00">LayerNorm</text>
<text text-anchor="middle" x="2094.78" y="-66.78" font-family="Times,serif" font-size="14.00">[1024, 8192] → [1024, 8192]</text>
<text text-anchor="middle" x="2094.78" y="-51.78" font-family="Times,serif" font-size="14.00">GPU 0</text>
</g>
<!-- residual1&#45;&gt;layernorm2 -->
<g id="edge11" class="edge">
<title>residual1&#45;&gt;layernorm2</title>
<path fill="none" stroke="black" d="M1891.7,-51.23C1907.31,-52.72 1923.25,-54.24 1938.98,-55.74"/>
<polygon fill="black" stroke="black" points="1939,-59.25 1949.28,-56.72 1939.66,-52.28 1939,-59.25"/>
</g>
<!-- residual2 -->
<g id="node13" class="node">
<title>residual2</title>
<ellipse fill="none" stroke="black" cx="3539.86" cy="-37.48" rx="156.04" ry="37.45"/>
<text text-anchor="middle" x="3539.86" y="-48.78" font-family="Times,serif" font-size="14.00">Residual Add</text>
<text text-anchor="middle" x="3539.86" y="-33.78" font-family="Times,serif" font-size="14.00">[1024, 8192] + [1024, 8192]</text>
<text text-anchor="middle" x="3539.86" y="-18.78" font-family="Times,serif" font-size="14.00">GPU 0</text>
</g>
<!-- residual1&#45;&gt;residual2 -->
<g id="edge16" class="edge">
<title>residual1&#45;&gt;residual2</title>
<path fill="none" stroke="black" d="M1896.3,-26.73C2038.24,-17.44 2257.91,-5.48 2448.69,-5.48 2448.69,-5.48 2448.69,-5.48 2818.32,-5.48 3011.37,-5.48 3233.23,-17.08 3379.19,-26.32"/>
<polygon fill="black" stroke="black" points="3379.36,-29.83 3389.56,-26.98 3379.8,-22.85 3379.36,-29.83"/>
</g>
<!-- mlp_up -->
<g id="node10" class="node">
<title>mlp_up</title>
<ellipse fill="none" stroke="black" cx="2449.69" cy="-70.48" rx="162.77" ry="37.45"/>
<text text-anchor="middle" x="2449.69" y="-81.78" font-family="Times,serif" font-size="14.00">MLP Up</text>
<text text-anchor="middle" x="2449.69" y="-66.78" font-family="Times,serif" font-size="14.00">[1024, 8192] → [1024, 32768]</text>
<text text-anchor="middle" x="2449.69" y="-51.78" font-family="Times,serif" font-size="14.00">GPU 0</text>
</g>
<!-- layernorm2&#45;&gt;mlp_up -->
<g id="edge12" class="edge">
<title>layernorm2&#45;&gt;mlp_up</title>
<path fill="none" stroke="black" d="M2251.09,-70.48C2259.66,-70.48 2268.3,-70.48 2276.92,-70.48"/>
<polygon fill="black" stroke="black" points="2277.04,-73.98 2287.04,-70.48 2277.04,-66.98 2277.04,-73.98"/>
</g>
<!-- activation -->
<g id="node11" class="node">
<title>activation</title>
<ellipse fill="none" stroke="black" cx="2817.32" cy="-70.48" rx="169" ry="37.45"/>
<text text-anchor="middle" x="2817.32" y="-81.78" font-family="Times,serif" font-size="14.00">GELU Activation</text>
<text text-anchor="middle" x="2817.32" y="-66.78" font-family="Times,serif" font-size="14.00">[1024, 32768] → [1024, 32768]</text>
<text text-anchor="middle" x="2817.32" y="-51.78" font-family="Times,serif" font-size="14.00">GPU 0</text>
</g>
<!-- mlp_up&#45;&gt;activation -->
<g id="edge13" class="edge">
<title>mlp_up&#45;&gt;activation</title>
<path fill="none" stroke="black" d="M2612.39,-70.48C2620.91,-70.48 2629.49,-70.48 2638.06,-70.48"/>
<polygon fill="black" stroke="black" points="2638.1,-73.98 2648.1,-70.48 2638.1,-66.98 2638.1,-73.98"/>
</g>
<!-- mlp_down -->
<g id="node12" class="node">
<title>mlp_down</title>
<ellipse fill="none" stroke="black" cx="3184.95" cy="-70.48" rx="162.77" ry="37.45"/>
<text text-anchor="middle" x="3184.95" y="-81.78" font-family="Times,serif" font-size="14.00">MLP Down</text>
<text text-anchor="middle" x="3184.95" y="-66.78" font-family="Times,serif" font-size="14.00">[1024, 32768] → [1024, 8192]</text>
<text text-anchor="middle" x="3184.95" y="-51.78" font-family="Times,serif" font-size="14.00">GPU 0</text>
</g>
<!-- activation&#45;&gt;mlp_down -->
<g id="edge14" class="edge">
<title>activation&#45;&gt;mlp_down</title>
<path fill="none" stroke="black" d="M2986.42,-70.48C2994.98,-70.48 3003.59,-70.48 3012.16,-70.48"/>
<polygon fill="black" stroke="black" points="3012.2,-73.98 3022.2,-70.48 3012.2,-66.98 3012.2,-73.98"/>
</g>
<!-- mlp_down&#45;&gt;residual2 -->
<g id="edge15" class="edge">
<title>mlp_down&#45;&gt;residual2</title>
<path fill="none" stroke="black" d="M3335.87,-56.46C3351.66,-54.98 3367.73,-53.48 3383.58,-52"/>
<polygon fill="black" stroke="black" points="3384.32,-55.44 3393.95,-51.03 3383.67,-48.47 3384.32,-55.44"/>
</g>
<!-- output -->
<g id="node14" class="node">
<title>output</title>
<ellipse fill="none" stroke="black" cx="3820.52" cy="-37.48" rx="88.28" ry="26.74"/>
<text text-anchor="middle" x="3820.52" y="-41.28" font-family="Times,serif" font-size="14.00">Layer 0 Output</text>
<text text-anchor="middle" x="3820.52" y="-26.28" font-family="Times,serif" font-size="14.00">[1024, 8192]</text>
</g>
<!-- residual2&#45;&gt;output -->
<g id="edge17" class="edge">
<title>residual2&#45;&gt;output</title>
<path fill="none" stroke="black" d="M3696.48,-37.48C3705.08,-37.48 3713.59,-37.48 3721.89,-37.48"/>
<polygon fill="black" stroke="black" points="3721.89,-40.98 3731.89,-37.48 3721.89,-33.98 3721.89,-40.98"/>
</g>
</g>
</svg>
