<?xml version="1.0" encoding="UTF-8" standalone="no"?>
<!DOCTYPE svg PUBLIC "-//W3C//DTD SVG 1.1//EN"
 "http://www.w3.org/Graphics/SVG/1.1/DTD/svg11.dtd">
<!-- Generated by graphviz version 2.43.0 (0)
 -->
<!-- Title: baseline_moe Pages: 1 -->
<svg width="1440pt" height="63pt"
 viewBox="0.00 0.00 1440.00 63.12" xmlns="http://www.w3.org/2000/svg" xmlns:xlink="http://www.w3.org/1999/xlink">
<g id="graph0" class="graph" transform="scale(0.08 0.08) rotate(0) translate(4 833)">
<title>baseline_moe</title>
<polygon fill="white" stroke="transparent" points="-4,4 -4,-833 19091,-833 19091,4 -4,4"/>
<g id="clust1" class="cluster">
<title>cluster_layer_0</title>
<polygon fill="none" stroke="black" points="8,-8 8,-668 3483,-668 3483,-8 8,-8"/>
<text text-anchor="middle" x="1745.5" y="-652.8" font-family="Times,serif" font-size="14.00">Layer 1</text>
</g>
<g id="clust2" class="cluster">
<title>cluster_layer_1</title>
<polygon fill="none" stroke="black" points="3496,-676 3496,-821 8685,-821 8685,-676 3496,-676"/>
<text text-anchor="middle" x="6090.5" y="-805.8" font-family="Times,serif" font-size="14.00">Layer 2</text>
</g>
<g id="clust3" class="cluster">
<title>cluster_layer_2</title>
<polygon fill="none" stroke="black" points="8693,-676 8693,-821 13882,-821 13882,-676 8693,-676"/>
<text text-anchor="middle" x="11287.5" y="-805.8" font-family="Times,serif" font-size="14.00">Layer 3</text>
</g>
<g id="clust4" class="cluster">
<title>cluster_layer_3</title>
<polygon fill="none" stroke="black" points="13890,-676 13890,-821 19079,-821 19079,-676 13890,-676"/>
<text text-anchor="middle" x="16484.5" y="-805.8" font-family="Times,serif" font-size="14.00">Layer 4</text>
</g>
<!-- input -->
<g id="node1" class="node">
<title>input</title>
<ellipse fill="lightcoral" stroke="black" cx="3339" cy="-737" rx="146.24" ry="26.74"/>
<text text-anchor="middle" x="3339" y="-740.8" font-family="Times,serif" font-size="14.00">Total Input</text>
<text text-anchor="middle" x="3339" y="-725.8" font-family="Times,serif" font-size="14.00">[1024 tokens, hidden_size]</text>
</g>
<!-- route_0_0 -->
<g id="node2" class="node">
<title>route_0_0</title>
<polygon fill="lightyellow" stroke="black" points="3474.63,-637 3258.87,-637 3203.37,-531 3419.13,-531 3474.63,-637"/>
<text text-anchor="middle" x="3339" y="-595.3" font-family="Times,serif" font-size="14.00">Routing Layer 1</text>
<text text-anchor="middle" x="3339" y="-580.3" font-family="Times,serif" font-size="14.00">Stage 1</text>
<text text-anchor="middle" x="3339" y="-565.3" font-family="Times,serif" font-size="14.00">[1024 tokens]</text>
</g>
<!-- input&#45;&gt;route_0_0 -->
<g id="edge1" class="edge">
<title>input&#45;&gt;route_0_0</title>
<path fill="none" stroke="black" d="M3339,-710.04C3339,-692.79 3339,-669.36 3339,-647.44"/>
<polygon fill="black" stroke="black" points="3342.5,-647.17 3339,-637.17 3335.5,-647.17 3342.5,-647.17"/>
</g>
<!-- expert_0_0 -->
<g id="node3" class="node">
<title>expert_0_0</title>
<polygon fill="lightblue" stroke="black" points="3034.5,-495 2698.05,-495 2611.5,-389 2947.95,-389 3034.5,-495"/>
<text text-anchor="middle" x="2823" y="-453.3" font-family="Times,serif" font-size="14.00">Expert 0</text>
<text text-anchor="middle" x="2823" y="-438.3" font-family="Times,serif" font-size="14.00">GPU 8</text>
<text text-anchor="middle" x="2823" y="-423.3" font-family="Times,serif" font-size="14.00">[1024 tokens, expert_dim]</text>
</g>
<!-- route_0_0&#45;&gt;expert_0_0 -->
<g id="edge2" class="edge">
<title>route_0_0&#45;&gt;expert_0_0</title>
<path fill="none" stroke="black" d="M3204.88,-534.31C3201.22,-533.17 3197.59,-532.07 3194,-531 3189.63,-529.7 3120.17,-513.19 3042.52,-494.81"/>
<polygon fill="black" stroke="black" points="3043.05,-491.34 3032.51,-492.45 3041.44,-498.16 3043.05,-491.34"/>
</g>
<!-- expert_0_1 -->
<g id="node4" class="node">
<title>expert_0_1</title>
<polygon fill="lightblue" stroke="black" points="3475.5,-495 3139.05,-495 3052.5,-389 3388.95,-389 3475.5,-495"/>
<text text-anchor="middle" x="3264" y="-453.3" font-family="Times,serif" font-size="14.00">Expert 1</text>
<text text-anchor="middle" x="3264" y="-438.3" font-family="Times,serif" font-size="14.00">GPU 9</text>
<text text-anchor="middle" x="3264" y="-423.3" font-family="Times,serif" font-size="14.00">[1024 tokens, expert_dim]</text>
</g>
<!-- route_0_0&#45;&gt;expert_0_1 -->
<g id="edge3" class="edge">
<title>route_0_0&#45;&gt;expert_0_1</title>
<path fill="none" stroke="black" d="M3311.07,-530.87C3306.39,-522.12 3301.49,-512.98 3296.7,-504.03"/>
<polygon fill="black" stroke="black" points="3299.76,-502.34 3291.95,-495.17 3293.59,-505.64 3299.76,-502.34"/>
</g>
<!-- agg_0_0 -->
<g id="node11" class="node">
<title>agg_0_0</title>
<polygon fill="lightyellow" stroke="black" points="3211.98,-353 2943.17,-353 2874.02,-247 3142.83,-247 3211.98,-353"/>
<text text-anchor="middle" x="3043" y="-311.3" font-family="Times,serif" font-size="14.00">Aggregation Layer 1</text>
<text text-anchor="middle" x="3043" y="-296.3" font-family="Times,serif" font-size="14.00">Stage 1</text>
<text text-anchor="middle" x="3043" y="-281.3" font-family="Times,serif" font-size="14.00">[1024 tokens]</text>
</g>
<!-- expert_0_0&#45;&gt;agg_0_0 -->
<g id="edge4" class="edge">
<title>expert_0_0&#45;&gt;agg_0_0</title>
<path fill="none" stroke="black" d="M2904.92,-388.87C2920.38,-379.03 2936.64,-368.69 2952.35,-358.69"/>
<polygon fill="black" stroke="black" points="2954.45,-361.5 2961.01,-353.17 2950.7,-355.59 2954.45,-361.5"/>
</g>
<!-- expert_0_1&#45;&gt;agg_0_0 -->
<g id="edge5" class="edge">
<title>expert_0_1&#45;&gt;agg_0_0</title>
<path fill="none" stroke="black" d="M3181.71,-388.87C3166.18,-379.03 3149.85,-368.69 3134.06,-358.69"/>
<polygon fill="black" stroke="black" points="3135.68,-355.57 3125.36,-353.17 3131.94,-361.48 3135.68,-355.57"/>
</g>
<!-- expert_0_2 -->
<g id="node5" class="node">
<title>expert_0_2</title>
<polygon fill="lightblue" stroke="black" points="3185.5,-637 2849.05,-637 2762.5,-531 3098.95,-531 3185.5,-637"/>
<text text-anchor="middle" x="2974" y="-595.3" font-family="Times,serif" font-size="14.00">Expert 2</text>
<text text-anchor="middle" x="2974" y="-580.3" font-family="Times,serif" font-size="14.00">GPU 10</text>
<text text-anchor="middle" x="2974" y="-565.3" font-family="Times,serif" font-size="14.00">[1024 tokens, expert_dim]</text>
</g>
<!-- expert_0_3 -->
<g id="node6" class="node">
<title>expert_0_3</title>
<polygon fill="lightblue" stroke="black" points="2744.5,-637 2408.05,-637 2321.5,-531 2657.95,-531 2744.5,-637"/>
<text text-anchor="middle" x="2533" y="-595.3" font-family="Times,serif" font-size="14.00">Expert 3</text>
<text text-anchor="middle" x="2533" y="-580.3" font-family="Times,serif" font-size="14.00">GPU 11</text>
<text text-anchor="middle" x="2533" y="-565.3" font-family="Times,serif" font-size="14.00">[1024 tokens, expert_dim]</text>
</g>
<!-- expert_0_4 -->
<g id="node7" class="node">
<title>expert_0_4</title>
<polygon fill="lightblue" stroke="black" points="2303.5,-637 1967.05,-637 1880.5,-531 2216.95,-531 2303.5,-637"/>
<text text-anchor="middle" x="2092" y="-595.3" font-family="Times,serif" font-size="14.00">Expert 4</text>
<text text-anchor="middle" x="2092" y="-580.3" font-family="Times,serif" font-size="14.00">GPU 12</text>
<text text-anchor="middle" x="2092" y="-565.3" font-family="Times,serif" font-size="14.00">[1024 tokens, expert_dim]</text>
</g>
<!-- expert_0_5 -->
<g id="node8" class="node">
<title>expert_0_5</title>
<polygon fill="lightblue" stroke="black" points="1862.5,-637 1526.05,-637 1439.5,-531 1775.95,-531 1862.5,-637"/>
<text text-anchor="middle" x="1651" y="-595.3" font-family="Times,serif" font-size="14.00">Expert 5</text>
<text text-anchor="middle" x="1651" y="-580.3" font-family="Times,serif" font-size="14.00">GPU 13</text>
<text text-anchor="middle" x="1651" y="-565.3" font-family="Times,serif" font-size="14.00">[1024 tokens, expert_dim]</text>
</g>
<!-- expert_0_6 -->
<g id="node9" class="node">
<title>expert_0_6</title>
<polygon fill="lightblue" stroke="black" points="1421.5,-637 1085.05,-637 998.5,-531 1334.95,-531 1421.5,-637"/>
<text text-anchor="middle" x="1210" y="-595.3" font-family="Times,serif" font-size="14.00">Expert 6</text>
<text text-anchor="middle" x="1210" y="-580.3" font-family="Times,serif" font-size="14.00">GPU 14</text>
<text text-anchor="middle" x="1210" y="-565.3" font-family="Times,serif" font-size="14.00">[1024 tokens, expert_dim]</text>
</g>
<!-- expert_0_7 -->
<g id="node10" class="node">
<title>expert_0_7</title>
<polygon fill="lightblue" stroke="black" points="980.5,-637 644.05,-637 557.5,-531 893.95,-531 980.5,-637"/>
<text text-anchor="middle" x="769" y="-595.3" font-family="Times,serif" font-size="14.00">Expert 7</text>
<text text-anchor="middle" x="769" y="-580.3" font-family="Times,serif" font-size="14.00">GPU 15</text>
<text text-anchor="middle" x="769" y="-565.3" font-family="Times,serif" font-size="14.00">[1024 tokens, expert_dim]</text>
</g>
<!-- residual_0_0 -->
<g id="node12" class="node">
<title>residual_0_0</title>
<polygon fill="orange" stroke="black" points="3127.5,-211 2958.5,-211 2958.5,-158 3127.5,-158 3127.5,-211"/>
<text text-anchor="middle" x="3043" y="-195.8" font-family="Times,serif" font-size="14.00">Residual Add Layer 1</text>
<text text-anchor="middle" x="3043" y="-180.8" font-family="Times,serif" font-size="14.00">Stage 1</text>
<text text-anchor="middle" x="3043" y="-165.8" font-family="Times,serif" font-size="14.00">[1024 tokens]</text>
</g>
<!-- agg_0_0&#45;&gt;residual_0_0 -->
<g id="edge6" class="edge">
<title>agg_0_0&#45;&gt;residual_0_0</title>
<path fill="none" stroke="black" d="M3043,-246.9C3043,-238.23 3043,-229.41 3043,-221.27"/>
<polygon fill="black" stroke="black" points="3046.5,-221.01 3043,-211.01 3039.5,-221.01 3046.5,-221.01"/>
</g>
<!-- route_0_1 -->
<g id="node13" class="node">
<title>route_0_1</title>
<polygon fill="lightyellow" stroke="black" points="3178.63,-122 2962.87,-122 2907.37,-16 3123.13,-16 3178.63,-122"/>
<text text-anchor="middle" x="3043" y="-80.3" font-family="Times,serif" font-size="14.00">Routing Layer 1</text>
<text text-anchor="middle" x="3043" y="-65.3" font-family="Times,serif" font-size="14.00">Stage 2</text>
<text text-anchor="middle" x="3043" y="-50.3" font-family="Times,serif" font-size="14.00">[1024 tokens]</text>
</g>
<!-- residual_0_0&#45;&gt;route_0_1 -->
<g id="edge7" class="edge">
<title>residual_0_0&#45;&gt;route_0_1</title>
<path fill="none" stroke="black" d="M3043,-157.75C3043,-150.05 3043,-141.25 3043,-132.27"/>
<polygon fill="black" stroke="black" points="3046.5,-132.1 3043,-122.1 3039.5,-132.1 3046.5,-132.1"/>
</g>
<!-- agg_0_1 -->
<g id="node14" class="node">
<title>agg_0_1</title>
<polygon fill="lightyellow" stroke="black" points="539.98,-637 271.17,-637 202.02,-531 470.83,-531 539.98,-637"/>
<text text-anchor="middle" x="371" y="-595.3" font-family="Times,serif" font-size="14.00">Aggregation Layer 1</text>
<text text-anchor="middle" x="371" y="-580.3" font-family="Times,serif" font-size="14.00">Stage 2</text>
<text text-anchor="middle" x="371" y="-565.3" font-family="Times,serif" font-size="14.00">[1024 tokens]</text>
</g>
<!-- residual_0_1 -->
<g id="node15" class="node">
<title>residual_0_1</title>
<polygon fill="orange" stroke="black" points="184.5,-610.5 15.5,-610.5 15.5,-557.5 184.5,-557.5 184.5,-610.5"/>
<text text-anchor="middle" x="100" y="-595.3" font-family="Times,serif" font-size="14.00">Residual Add Layer 1</text>
<text text-anchor="middle" x="100" y="-580.3" font-family="Times,serif" font-size="14.00">Stage 2</text>
<text text-anchor="middle" x="100" y="-565.3" font-family="Times,serif" font-size="14.00">[1024 tokens]</text>
</g>
<!-- route_1_0 -->
<g id="node16" class="node">
<title>route_1_0</title>
<polygon fill="lightyellow" stroke="black" points="8676.63,-790 8460.87,-790 8405.37,-684 8621.13,-684 8676.63,-790"/>
<text text-anchor="middle" x="8541" y="-748.3" font-family="Times,serif" font-size="14.00">Routing Layer 2</text>
<text text-anchor="middle" x="8541" y="-733.3" font-family="Times,serif" font-size="14.00">Stage 1</text>
<text text-anchor="middle" x="8541" y="-718.3" font-family="Times,serif" font-size="14.00">[1024 tokens]</text>
</g>
<!-- expert_1_0 -->
<g id="node17" class="node">
<title>expert_1_0</title>
<polygon fill="lightblue" stroke="black" points="8387.5,-790 8051.05,-790 7964.5,-684 8300.95,-684 8387.5,-790"/>
<text text-anchor="middle" x="8176" y="-748.3" font-family="Times,serif" font-size="14.00">Expert 16</text>
<text text-anchor="middle" x="8176" y="-733.3" font-family="Times,serif" font-size="14.00">GPU 24</text>
<text text-anchor="middle" x="8176" y="-718.3" font-family="Times,serif" font-size="14.00">[1024 tokens, expert_dim]</text>
</g>
<!-- expert_1_1 -->
<g id="node18" class="node">
<title>expert_1_1</title>
<polygon fill="lightblue" stroke="black" points="7946.5,-790 7610.05,-790 7523.5,-684 7859.95,-684 7946.5,-790"/>
<text text-anchor="middle" x="7735" y="-748.3" font-family="Times,serif" font-size="14.00">Expert 17</text>
<text text-anchor="middle" x="7735" y="-733.3" font-family="Times,serif" font-size="14.00">GPU 25</text>
<text text-anchor="middle" x="7735" y="-718.3" font-family="Times,serif" font-size="14.00">[1024 tokens, expert_dim]</text>
</g>
<!-- expert_1_2 -->
<g id="node19" class="node">
<title>expert_1_2</title>
<polygon fill="lightblue" stroke="black" points="7505.5,-790 7169.05,-790 7082.5,-684 7418.95,-684 7505.5,-790"/>
<text text-anchor="middle" x="7294" y="-748.3" font-family="Times,serif" font-size="14.00">Expert 18</text>
<text text-anchor="middle" x="7294" y="-733.3" font-family="Times,serif" font-size="14.00">GPU 26</text>
<text text-anchor="middle" x="7294" y="-718.3" font-family="Times,serif" font-size="14.00">[1024 tokens, expert_dim]</text>
</g>
<!-- expert_1_3 -->
<g id="node20" class="node">
<title>expert_1_3</title>
<polygon fill="lightblue" stroke="black" points="7064.5,-790 6728.05,-790 6641.5,-684 6977.95,-684 7064.5,-790"/>
<text text-anchor="middle" x="6853" y="-748.3" font-family="Times,serif" font-size="14.00">Expert 19</text>
<text text-anchor="middle" x="6853" y="-733.3" font-family="Times,serif" font-size="14.00">GPU 27</text>
<text text-anchor="middle" x="6853" y="-718.3" font-family="Times,serif" font-size="14.00">[1024 tokens, expert_dim]</text>
</g>
<!-- expert_1_4 -->
<g id="node21" class="node">
<title>expert_1_4</title>
<polygon fill="lightblue" stroke="black" points="6623.5,-790 6287.05,-790 6200.5,-684 6536.95,-684 6623.5,-790"/>
<text text-anchor="middle" x="6412" y="-748.3" font-family="Times,serif" font-size="14.00">Expert 20</text>
<text text-anchor="middle" x="6412" y="-733.3" font-family="Times,serif" font-size="14.00">GPU 28</text>
<text text-anchor="middle" x="6412" y="-718.3" font-family="Times,serif" font-size="14.00">[1024 tokens, expert_dim]</text>
</g>
<!-- expert_1_5 -->
<g id="node22" class="node">
<title>expert_1_5</title>
<polygon fill="lightblue" stroke="black" points="6182.5,-790 5846.05,-790 5759.5,-684 6095.95,-684 6182.5,-790"/>
<text text-anchor="middle" x="5971" y="-748.3" font-family="Times,serif" font-size="14.00">Expert 21</text>
<text text-anchor="middle" x="5971" y="-733.3" font-family="Times,serif" font-size="14.00">GPU 29</text>
<text text-anchor="middle" x="5971" y="-718.3" font-family="Times,serif" font-size="14.00">[1024 tokens, expert_dim]</text>
</g>
<!-- expert_1_6 -->
<g id="node23" class="node">
<title>expert_1_6</title>
<polygon fill="lightblue" stroke="black" points="5741.5,-790 5405.05,-790 5318.5,-684 5654.95,-684 5741.5,-790"/>
<text text-anchor="middle" x="5530" y="-748.3" font-family="Times,serif" font-size="14.00">Expert 22</text>
<text text-anchor="middle" x="5530" y="-733.3" font-family="Times,serif" font-size="14.00">GPU 30</text>
<text text-anchor="middle" x="5530" y="-718.3" font-family="Times,serif" font-size="14.00">[1024 tokens, expert_dim]</text>
</g>
<!-- expert_1_7 -->
<g id="node24" class="node">
<title>expert_1_7</title>
<polygon fill="lightblue" stroke="black" points="5300.5,-790 4964.05,-790 4877.5,-684 5213.95,-684 5300.5,-790"/>
<text text-anchor="middle" x="5089" y="-748.3" font-family="Times,serif" font-size="14.00">Expert 23</text>
<text text-anchor="middle" x="5089" y="-733.3" font-family="Times,serif" font-size="14.00">GPU 31</text>
<text text-anchor="middle" x="5089" y="-718.3" font-family="Times,serif" font-size="14.00">[1024 tokens, expert_dim]</text>
</g>
<!-- agg_1_0 -->
<g id="node25" class="node">
<title>agg_1_0</title>
<polygon fill="lightyellow" stroke="black" points="4859.98,-790 4591.17,-790 4522.02,-684 4790.83,-684 4859.98,-790"/>
<text text-anchor="middle" x="4691" y="-748.3" font-family="Times,serif" font-size="14.00">Aggregation Layer 2</text>
<text text-anchor="middle" x="4691" y="-733.3" font-family="Times,serif" font-size="14.00">Stage 1</text>
<text text-anchor="middle" x="4691" y="-718.3" font-family="Times,serif" font-size="14.00">[1024 tokens]</text>
</g>
<!-- residual_1_0 -->
<g id="node26" class="node">
<title>residual_1_0</title>
<polygon fill="orange" stroke="black" points="4504.5,-763.5 4335.5,-763.5 4335.5,-710.5 4504.5,-710.5 4504.5,-763.5"/>
<text text-anchor="middle" x="4420" y="-748.3" font-family="Times,serif" font-size="14.00">Residual Add Layer 2</text>
<text text-anchor="middle" x="4420" y="-733.3" font-family="Times,serif" font-size="14.00">Stage 1</text>
<text text-anchor="middle" x="4420" y="-718.3" font-family="Times,serif" font-size="14.00">[1024 tokens]</text>
</g>
<!-- route_1_1 -->
<g id="node27" class="node">
<title>route_1_1</title>
<polygon fill="lightyellow" stroke="black" points="4317.63,-790 4101.87,-790 4046.37,-684 4262.13,-684 4317.63,-790"/>
<text text-anchor="middle" x="4182" y="-748.3" font-family="Times,serif" font-size="14.00">Routing Layer 2</text>
<text text-anchor="middle" x="4182" y="-733.3" font-family="Times,serif" font-size="14.00">Stage 2</text>
<text text-anchor="middle" x="4182" y="-718.3" font-family="Times,serif" font-size="14.00">[1024 tokens]</text>
</g>
<!-- agg_1_1 -->
<g id="node28" class="node">
<title>agg_1_1</title>
<polygon fill="lightyellow" stroke="black" points="4027.98,-790 3759.17,-790 3690.02,-684 3958.83,-684 4027.98,-790"/>
<text text-anchor="middle" x="3859" y="-748.3" font-family="Times,serif" font-size="14.00">Aggregation Layer 2</text>
<text text-anchor="middle" x="3859" y="-733.3" font-family="Times,serif" font-size="14.00">Stage 2</text>
<text text-anchor="middle" x="3859" y="-718.3" font-family="Times,serif" font-size="14.00">[1024 tokens]</text>
</g>
<!-- residual_1_1 -->
<g id="node29" class="node">
<title>residual_1_1</title>
<polygon fill="orange" stroke="black" points="3672.5,-763.5 3503.5,-763.5 3503.5,-710.5 3672.5,-710.5 3672.5,-763.5"/>
<text text-anchor="middle" x="3588" y="-748.3" font-family="Times,serif" font-size="14.00">Residual Add Layer 2</text>
<text text-anchor="middle" x="3588" y="-733.3" font-family="Times,serif" font-size="14.00">Stage 2</text>
<text text-anchor="middle" x="3588" y="-718.3" font-family="Times,serif" font-size="14.00">[1024 tokens]</text>
</g>
<!-- route_2_0 -->
<g id="node30" class="node">
<title>route_2_0</title>
<polygon fill="lightyellow" stroke="black" points="13873.63,-790 13657.87,-790 13602.37,-684 13818.13,-684 13873.63,-790"/>
<text text-anchor="middle" x="13738" y="-748.3" font-family="Times,serif" font-size="14.00">Routing Layer 3</text>
<text text-anchor="middle" x="13738" y="-733.3" font-family="Times,serif" font-size="14.00">Stage 1</text>
<text text-anchor="middle" x="13738" y="-718.3" font-family="Times,serif" font-size="14.00">[1024 tokens]</text>
</g>
<!-- expert_2_0 -->
<g id="node31" class="node">
<title>expert_2_0</title>
<polygon fill="lightblue" stroke="black" points="13584.5,-790 13248.05,-790 13161.5,-684 13497.95,-684 13584.5,-790"/>
<text text-anchor="middle" x="13373" y="-748.3" font-family="Times,serif" font-size="14.00">Expert 32</text>
<text text-anchor="middle" x="13373" y="-733.3" font-family="Times,serif" font-size="14.00">GPU 40</text>
<text text-anchor="middle" x="13373" y="-718.3" font-family="Times,serif" font-size="14.00">[1024 tokens, expert_dim]</text>
</g>
<!-- expert_2_1 -->
<g id="node32" class="node">
<title>expert_2_1</title>
<polygon fill="lightblue" stroke="black" points="13143.5,-790 12807.05,-790 12720.5,-684 13056.95,-684 13143.5,-790"/>
<text text-anchor="middle" x="12932" y="-748.3" font-family="Times,serif" font-size="14.00">Expert 33</text>
<text text-anchor="middle" x="12932" y="-733.3" font-family="Times,serif" font-size="14.00">GPU 41</text>
<text text-anchor="middle" x="12932" y="-718.3" font-family="Times,serif" font-size="14.00">[1024 tokens, expert_dim]</text>
</g>
<!-- expert_2_2 -->
<g id="node33" class="node">
<title>expert_2_2</title>
<polygon fill="lightblue" stroke="black" points="12702.5,-790 12366.05,-790 12279.5,-684 12615.95,-684 12702.5,-790"/>
<text text-anchor="middle" x="12491" y="-748.3" font-family="Times,serif" font-size="14.00">Expert 34</text>
<text text-anchor="middle" x="12491" y="-733.3" font-family="Times,serif" font-size="14.00">GPU 42</text>
<text text-anchor="middle" x="12491" y="-718.3" font-family="Times,serif" font-size="14.00">[1024 tokens, expert_dim]</text>
</g>
<!-- expert_2_3 -->
<g id="node34" class="node">
<title>expert_2_3</title>
<polygon fill="lightblue" stroke="black" points="12261.5,-790 11925.05,-790 11838.5,-684 12174.95,-684 12261.5,-790"/>
<text text-anchor="middle" x="12050" y="-748.3" font-family="Times,serif" font-size="14.00">Expert 35</text>
<text text-anchor="middle" x="12050" y="-733.3" font-family="Times,serif" font-size="14.00">GPU 43</text>
<text text-anchor="middle" x="12050" y="-718.3" font-family="Times,serif" font-size="14.00">[1024 tokens, expert_dim]</text>
</g>
<!-- expert_2_4 -->
<g id="node35" class="node">
<title>expert_2_4</title>
<polygon fill="lightblue" stroke="black" points="11820.5,-790 11484.05,-790 11397.5,-684 11733.95,-684 11820.5,-790"/>
<text text-anchor="middle" x="11609" y="-748.3" font-family="Times,serif" font-size="14.00">Expert 36</text>
<text text-anchor="middle" x="11609" y="-733.3" font-family="Times,serif" font-size="14.00">GPU 44</text>
<text text-anchor="middle" x="11609" y="-718.3" font-family="Times,serif" font-size="14.00">[1024 tokens, expert_dim]</text>
</g>
<!-- expert_2_5 -->
<g id="node36" class="node">
<title>expert_2_5</title>
<polygon fill="lightblue" stroke="black" points="11379.5,-790 11043.05,-790 10956.5,-684 11292.95,-684 11379.5,-790"/>
<text text-anchor="middle" x="11168" y="-748.3" font-family="Times,serif" font-size="14.00">Expert 37</text>
<text text-anchor="middle" x="11168" y="-733.3" font-family="Times,serif" font-size="14.00">GPU 45</text>
<text text-anchor="middle" x="11168" y="-718.3" font-family="Times,serif" font-size="14.00">[1024 tokens, expert_dim]</text>
</g>
<!-- expert_2_6 -->
<g id="node37" class="node">
<title>expert_2_6</title>
<polygon fill="lightblue" stroke="black" points="10938.5,-790 10602.05,-790 10515.5,-684 10851.95,-684 10938.5,-790"/>
<text text-anchor="middle" x="10727" y="-748.3" font-family="Times,serif" font-size="14.00">Expert 38</text>
<text text-anchor="middle" x="10727" y="-733.3" font-family="Times,serif" font-size="14.00">GPU 46</text>
<text text-anchor="middle" x="10727" y="-718.3" font-family="Times,serif" font-size="14.00">[1024 tokens, expert_dim]</text>
</g>
<!-- expert_2_7 -->
<g id="node38" class="node">
<title>expert_2_7</title>
<polygon fill="lightblue" stroke="black" points="10497.5,-790 10161.05,-790 10074.5,-684 10410.95,-684 10497.5,-790"/>
<text text-anchor="middle" x="10286" y="-748.3" font-family="Times,serif" font-size="14.00">Expert 39</text>
<text text-anchor="middle" x="10286" y="-733.3" font-family="Times,serif" font-size="14.00">GPU 47</text>
<text text-anchor="middle" x="10286" y="-718.3" font-family="Times,serif" font-size="14.00">[1024 tokens, expert_dim]</text>
</g>
<!-- agg_2_0 -->
<g id="node39" class="node">
<title>agg_2_0</title>
<polygon fill="lightyellow" stroke="black" points="10056.98,-790 9788.17,-790 9719.02,-684 9987.83,-684 10056.98,-790"/>
<text text-anchor="middle" x="9888" y="-748.3" font-family="Times,serif" font-size="14.00">Aggregation Layer 3</text>
<text text-anchor="middle" x="9888" y="-733.3" font-family="Times,serif" font-size="14.00">Stage 1</text>
<text text-anchor="middle" x="9888" y="-718.3" font-family="Times,serif" font-size="14.00">[1024 tokens]</text>
</g>
<!-- residual_2_0 -->
<g id="node40" class="node">
<title>residual_2_0</title>
<polygon fill="orange" stroke="black" points="9701.5,-763.5 9532.5,-763.5 9532.5,-710.5 9701.5,-710.5 9701.5,-763.5"/>
<text text-anchor="middle" x="9617" y="-748.3" font-family="Times,serif" font-size="14.00">Residual Add Layer 3</text>
<text text-anchor="middle" x="9617" y="-733.3" font-family="Times,serif" font-size="14.00">Stage 1</text>
<text text-anchor="middle" x="9617" y="-718.3" font-family="Times,serif" font-size="14.00">[1024 tokens]</text>
</g>
<!-- route_2_1 -->
<g id="node41" class="node">
<title>route_2_1</title>
<polygon fill="lightyellow" stroke="black" points="9514.63,-790 9298.87,-790 9243.37,-684 9459.13,-684 9514.63,-790"/>
<text text-anchor="middle" x="9379" y="-748.3" font-family="Times,serif" font-size="14.00">Routing Layer 3</text>
<text text-anchor="middle" x="9379" y="-733.3" font-family="Times,serif" font-size="14.00">Stage 2</text>
<text text-anchor="middle" x="9379" y="-718.3" font-family="Times,serif" font-size="14.00">[1024 tokens]</text>
</g>
<!-- agg_2_1 -->
<g id="node42" class="node">
<title>agg_2_1</title>
<polygon fill="lightyellow" stroke="black" points="9224.98,-790 8956.17,-790 8887.02,-684 9155.83,-684 9224.98,-790"/>
<text text-anchor="middle" x="9056" y="-748.3" font-family="Times,serif" font-size="14.00">Aggregation Layer 3</text>
<text text-anchor="middle" x="9056" y="-733.3" font-family="Times,serif" font-size="14.00">Stage 2</text>
<text text-anchor="middle" x="9056" y="-718.3" font-family="Times,serif" font-size="14.00">[1024 tokens]</text>
</g>
<!-- residual_2_1 -->
<g id="node43" class="node">
<title>residual_2_1</title>
<polygon fill="orange" stroke="black" points="8869.5,-763.5 8700.5,-763.5 8700.5,-710.5 8869.5,-710.5 8869.5,-763.5"/>
<text text-anchor="middle" x="8785" y="-748.3" font-family="Times,serif" font-size="14.00">Residual Add Layer 3</text>
<text text-anchor="middle" x="8785" y="-733.3" font-family="Times,serif" font-size="14.00">Stage 2</text>
<text text-anchor="middle" x="8785" y="-718.3" font-family="Times,serif" font-size="14.00">[1024 tokens]</text>
</g>
<!-- route_3_0 -->
<g id="node44" class="node">
<title>route_3_0</title>
<polygon fill="lightyellow" stroke="black" points="19070.63,-790 18854.87,-790 18799.37,-684 19015.13,-684 19070.63,-790"/>
<text text-anchor="middle" x="18935" y="-748.3" font-family="Times,serif" font-size="14.00">Routing Layer 4</text>
<text text-anchor="middle" x="18935" y="-733.3" font-family="Times,serif" font-size="14.00">Stage 1</text>
<text text-anchor="middle" x="18935" y="-718.3" font-family="Times,serif" font-size="14.00">[1024 tokens]</text>
</g>
<!-- expert_3_0 -->
<g id="node45" class="node">
<title>expert_3_0</title>
<polygon fill="lightblue" stroke="black" points="18781.5,-790 18445.05,-790 18358.5,-684 18694.95,-684 18781.5,-790"/>
<text text-anchor="middle" x="18570" y="-748.3" font-family="Times,serif" font-size="14.00">Expert 48</text>
<text text-anchor="middle" x="18570" y="-733.3" font-family="Times,serif" font-size="14.00">GPU 56</text>
<text text-anchor="middle" x="18570" y="-718.3" font-family="Times,serif" font-size="14.00">[1024 tokens, expert_dim]</text>
</g>
<!-- expert_3_1 -->
<g id="node46" class="node">
<title>expert_3_1</title>
<polygon fill="lightblue" stroke="black" points="18340.5,-790 18004.05,-790 17917.5,-684 18253.95,-684 18340.5,-790"/>
<text text-anchor="middle" x="18129" y="-748.3" font-family="Times,serif" font-size="14.00">Expert 49</text>
<text text-anchor="middle" x="18129" y="-733.3" font-family="Times,serif" font-size="14.00">GPU 57</text>
<text text-anchor="middle" x="18129" y="-718.3" font-family="Times,serif" font-size="14.00">[1024 tokens, expert_dim]</text>
</g>
<!-- expert_3_2 -->
<g id="node47" class="node">
<title>expert_3_2</title>
<polygon fill="lightblue" stroke="black" points="17899.5,-790 17563.05,-790 17476.5,-684 17812.95,-684 17899.5,-790"/>
<text text-anchor="middle" x="17688" y="-748.3" font-family="Times,serif" font-size="14.00">Expert 50</text>
<text text-anchor="middle" x="17688" y="-733.3" font-family="Times,serif" font-size="14.00">GPU 58</text>
<text text-anchor="middle" x="17688" y="-718.3" font-family="Times,serif" font-size="14.00">[1024 tokens, expert_dim]</text>
</g>
<!-- expert_3_3 -->
<g id="node48" class="node">
<title>expert_3_3</title>
<polygon fill="lightblue" stroke="black" points="17458.5,-790 17122.05,-790 17035.5,-684 17371.95,-684 17458.5,-790"/>
<text text-anchor="middle" x="17247" y="-748.3" font-family="Times,serif" font-size="14.00">Expert 51</text>
<text text-anchor="middle" x="17247" y="-733.3" font-family="Times,serif" font-size="14.00">GPU 59</text>
<text text-anchor="middle" x="17247" y="-718.3" font-family="Times,serif" font-size="14.00">[1024 tokens, expert_dim]</text>
</g>
<!-- expert_3_4 -->
<g id="node49" class="node">
<title>expert_3_4</title>
<polygon fill="lightblue" stroke="black" points="17017.5,-790 16681.05,-790 16594.5,-684 16930.95,-684 17017.5,-790"/>
<text text-anchor="middle" x="16806" y="-748.3" font-family="Times,serif" font-size="14.00">Expert 52</text>
<text text-anchor="middle" x="16806" y="-733.3" font-family="Times,serif" font-size="14.00">GPU 60</text>
<text text-anchor="middle" x="16806" y="-718.3" font-family="Times,serif" font-size="14.00">[1024 tokens, expert_dim]</text>
</g>
<!-- expert_3_5 -->
<g id="node50" class="node">
<title>expert_3_5</title>
<polygon fill="lightblue" stroke="black" points="16576.5,-790 16240.05,-790 16153.5,-684 16489.95,-684 16576.5,-790"/>
<text text-anchor="middle" x="16365" y="-748.3" font-family="Times,serif" font-size="14.00">Expert 53</text>
<text text-anchor="middle" x="16365" y="-733.3" font-family="Times,serif" font-size="14.00">GPU 61</text>
<text text-anchor="middle" x="16365" y="-718.3" font-family="Times,serif" font-size="14.00">[1024 tokens, expert_dim]</text>
</g>
<!-- expert_3_6 -->
<g id="node51" class="node">
<title>expert_3_6</title>
<polygon fill="lightblue" stroke="black" points="16135.5,-790 15799.05,-790 15712.5,-684 16048.95,-684 16135.5,-790"/>
<text text-anchor="middle" x="15924" y="-748.3" font-family="Times,serif" font-size="14.00">Expert 54</text>
<text text-anchor="middle" x="15924" y="-733.3" font-family="Times,serif" font-size="14.00">GPU 62</text>
<text text-anchor="middle" x="15924" y="-718.3" font-family="Times,serif" font-size="14.00">[1024 tokens, expert_dim]</text>
</g>
<!-- expert_3_7 -->
<g id="node52" class="node">
<title>expert_3_7</title>
<polygon fill="lightblue" stroke="black" points="15694.5,-790 15358.05,-790 15271.5,-684 15607.95,-684 15694.5,-790"/>
<text text-anchor="middle" x="15483" y="-748.3" font-family="Times,serif" font-size="14.00">Expert 55</text>
<text text-anchor="middle" x="15483" y="-733.3" font-family="Times,serif" font-size="14.00">GPU 63</text>
<text text-anchor="middle" x="15483" y="-718.3" font-family="Times,serif" font-size="14.00">[1024 tokens, expert_dim]</text>
</g>
<!-- agg_3_0 -->
<g id="node53" class="node">
<title>agg_3_0</title>
<polygon fill="lightyellow" stroke="black" points="15253.98,-790 14985.17,-790 14916.02,-684 15184.83,-684 15253.98,-790"/>
<text text-anchor="middle" x="15085" y="-748.3" font-family="Times,serif" font-size="14.00">Aggregation Layer 4</text>
<text text-anchor="middle" x="15085" y="-733.3" font-family="Times,serif" font-size="14.00">Stage 1</text>
<text text-anchor="middle" x="15085" y="-718.3" font-family="Times,serif" font-size="14.00">[1024 tokens]</text>
</g>
<!-- residual_3_0 -->
<g id="node54" class="node">
<title>residual_3_0</title>
<polygon fill="orange" stroke="black" points="14898.5,-763.5 14729.5,-763.5 14729.5,-710.5 14898.5,-710.5 14898.5,-763.5"/>
<text text-anchor="middle" x="14814" y="-748.3" font-family="Times,serif" font-size="14.00">Residual Add Layer 4</text>
<text text-anchor="middle" x="14814" y="-733.3" font-family="Times,serif" font-size="14.00">Stage 1</text>
<text text-anchor="middle" x="14814" y="-718.3" font-family="Times,serif" font-size="14.00">[1024 tokens]</text>
</g>
<!-- route_3_1 -->
<g id="node55" class="node">
<title>route_3_1</title>
<polygon fill="lightyellow" stroke="black" points="14711.63,-790 14495.87,-790 14440.37,-684 14656.13,-684 14711.63,-790"/>
<text text-anchor="middle" x="14576" y="-748.3" font-family="Times,serif" font-size="14.00">Routing Layer 4</text>
<text text-anchor="middle" x="14576" y="-733.3" font-family="Times,serif" font-size="14.00">Stage 2</text>
<text text-anchor="middle" x="14576" y="-718.3" font-family="Times,serif" font-size="14.00">[1024 tokens]</text>
</g>
<!-- agg_3_1 -->
<g id="node56" class="node">
<title>agg_3_1</title>
<polygon fill="lightyellow" stroke="black" points="14421.98,-790 14153.17,-790 14084.02,-684 14352.83,-684 14421.98,-790"/>
<text text-anchor="middle" x="14253" y="-748.3" font-family="Times,serif" font-size="14.00">Aggregation Layer 4</text>
<text text-anchor="middle" x="14253" y="-733.3" font-family="Times,serif" font-size="14.00">Stage 2</text>
<text text-anchor="middle" x="14253" y="-718.3" font-family="Times,serif" font-size="14.00">[1024 tokens]</text>
</g>
<!-- residual_3_1 -->
<g id="node57" class="node">
<title>residual_3_1</title>
<polygon fill="orange" stroke="black" points="14066.5,-763.5 13897.5,-763.5 13897.5,-710.5 14066.5,-710.5 14066.5,-763.5"/>
<text text-anchor="middle" x="13982" y="-748.3" font-family="Times,serif" font-size="14.00">Residual Add Layer 4</text>
<text text-anchor="middle" x="13982" y="-733.3" font-family="Times,serif" font-size="14.00">Stage 2</text>
<text text-anchor="middle" x="13982" y="-718.3" font-family="Times,serif" font-size="14.00">[1024 tokens]</text>
</g>
</g>
</svg>
