<?xml version="1.0" encoding="UTF-8" standalone="no"?>
<!DOCTYPE svg PUBLIC "-//W3C//DTD SVG 1.1//EN"
 "http://www.w3.org/Graphics/SVG/1.1/DTD/svg11.dtd">
<!-- Generated by graphviz version 2.43.0 (0)
 -->
<!-- Title: proposed_communication Pages: 1 -->
<svg width="2160pt" height="75pt"
 viewBox="0.00 0.00 2160.00 74.85" xmlns="http://www.w3.org/2000/svg" xmlns:xlink="http://www.w3.org/1999/xlink">
<g id="graph0" class="graph" transform="scale(0.9 0.9) rotate(0) translate(4 78.95)">
<title>proposed_communication</title>
<polygon fill="white" stroke="transparent" points="-4,4 -4,-78.95 2389.92,-78.95 2389.92,4 -4,4"/>
<!-- input_broadcast -->
<g id="node1" class="node">
<title>input_broadcast</title>
<ellipse fill="none" stroke="black" cx="92.63" cy="-37.48" rx="92.76" ry="37.45"/>
<text text-anchor="middle" x="92.63" y="-48.78" font-family="Times,serif" font-size="14.00">Input Broadcast</text>
<text text-anchor="middle" x="92.63" y="-33.78" font-family="Times,serif" font-size="14.00">[1024 tokens]</text>
<text text-anchor="middle" x="92.63" y="-18.78" font-family="Times,serif" font-size="14.00">To 64 GPUs</text>
</g>
<!-- layer1_routing -->
<g id="node2" class="node">
<title>layer1_routing</title>
<ellipse fill="none" stroke="black" cx="334.4" cy="-37.48" rx="113.27" ry="37.45"/>
<text text-anchor="middle" x="334.4" y="-48.78" font-family="Times,serif" font-size="14.00">Layer 1 Routing</text>
<text text-anchor="middle" x="334.4" y="-33.78" font-family="Times,serif" font-size="14.00">Async token routing</text>
<text text-anchor="middle" x="334.4" y="-18.78" font-family="Times,serif" font-size="14.00">To 16 experts</text>
</g>
<!-- input_broadcast&#45;&gt;layer1_routing -->
<g id="edge1" class="edge">
<title>input_broadcast&#45;&gt;layer1_routing</title>
<path fill="none" stroke="black" d="M185.3,-37.48C193.67,-37.48 202.22,-37.48 210.8,-37.48"/>
<polygon fill="black" stroke="black" points="210.86,-40.98 220.86,-37.48 210.86,-33.98 210.86,-40.98"/>
</g>
<!-- layer1_gather -->
<g id="node3" class="node">
<title>layer1_gather</title>
<ellipse fill="none" stroke="black" cx="579.7" cy="-37.48" rx="96.33" ry="37.45"/>
<text text-anchor="middle" x="579.7" y="-48.78" font-family="Times,serif" font-size="14.00">Layer 1 Gather</text>
<text text-anchor="middle" x="579.7" y="-33.78" font-family="Times,serif" font-size="14.00">Async all&#45;gather</text>
<text text-anchor="middle" x="579.7" y="-18.78" font-family="Times,serif" font-size="14.00">From 16 experts</text>
</g>
<!-- layer1_routing&#45;&gt;layer1_gather -->
<g id="edge2" class="edge">
<title>layer1_routing&#45;&gt;layer1_gather</title>
<path fill="none" stroke="black" d="M447.79,-37.48C456.2,-37.48 464.67,-37.48 473.04,-37.48"/>
<polygon fill="black" stroke="black" points="473.18,-40.98 483.18,-37.48 473.18,-33.98 473.18,-40.98"/>
</g>
<!-- layer2_routing -->
<g id="node4" class="node">
<title>layer2_routing</title>
<ellipse fill="none" stroke="black" cx="825.01" cy="-37.48" rx="113.27" ry="37.45"/>
<text text-anchor="middle" x="825.01" y="-48.78" font-family="Times,serif" font-size="14.00">Layer 2 Routing</text>
<text text-anchor="middle" x="825.01" y="-33.78" font-family="Times,serif" font-size="14.00">Async token routing</text>
<text text-anchor="middle" x="825.01" y="-18.78" font-family="Times,serif" font-size="14.00">To 16 experts</text>
</g>
<!-- layer1_gather&#45;&gt;layer2_routing -->
<g id="edge3" class="edge">
<title>layer1_gather&#45;&gt;layer2_routing</title>
<path fill="none" stroke="black" d="M676.16,-37.48C684.58,-37.48 693.18,-37.48 701.78,-37.48"/>
<polygon fill="black" stroke="black" points="701.87,-40.98 711.87,-37.48 701.87,-33.98 701.87,-40.98"/>
</g>
<!-- layer2_gather -->
<g id="node5" class="node">
<title>layer2_gather</title>
<ellipse fill="none" stroke="black" cx="1070.31" cy="-37.48" rx="96.33" ry="37.45"/>
<text text-anchor="middle" x="1070.31" y="-48.78" font-family="Times,serif" font-size="14.00">Layer 2 Gather</text>
<text text-anchor="middle" x="1070.31" y="-33.78" font-family="Times,serif" font-size="14.00">Async all&#45;gather</text>
<text text-anchor="middle" x="1070.31" y="-18.78" font-family="Times,serif" font-size="14.00">From 16 experts</text>
</g>
<!-- layer2_routing&#45;&gt;layer2_gather -->
<g id="edge4" class="edge">
<title>layer2_routing&#45;&gt;layer2_gather</title>
<path fill="none" stroke="black" d="M938.4,-37.48C946.81,-37.48 955.28,-37.48 963.64,-37.48"/>
<polygon fill="black" stroke="black" points="963.79,-40.98 973.79,-37.48 963.79,-33.98 963.79,-40.98"/>
</g>
<!-- layer3_routing -->
<g id="node6" class="node">
<title>layer3_routing</title>
<ellipse fill="none" stroke="black" cx="1315.61" cy="-37.48" rx="113.27" ry="37.45"/>
<text text-anchor="middle" x="1315.61" y="-48.78" font-family="Times,serif" font-size="14.00">Layer 3 Routing</text>
<text text-anchor="middle" x="1315.61" y="-33.78" font-family="Times,serif" font-size="14.00">Async token routing</text>
<text text-anchor="middle" x="1315.61" y="-18.78" font-family="Times,serif" font-size="14.00">To 16 experts</text>
</g>
<!-- layer2_gather&#45;&gt;layer3_routing -->
<g id="edge5" class="edge">
<title>layer2_gather&#45;&gt;layer3_routing</title>
<path fill="none" stroke="black" d="M1166.77,-37.48C1175.19,-37.48 1183.79,-37.48 1192.39,-37.48"/>
<polygon fill="black" stroke="black" points="1192.48,-40.98 1202.48,-37.48 1192.48,-33.98 1192.48,-40.98"/>
</g>
<!-- layer3_gather -->
<g id="node7" class="node">
<title>layer3_gather</title>
<ellipse fill="none" stroke="black" cx="1560.92" cy="-37.48" rx="96.33" ry="37.45"/>
<text text-anchor="middle" x="1560.92" y="-48.78" font-family="Times,serif" font-size="14.00">Layer 3 Gather</text>
<text text-anchor="middle" x="1560.92" y="-33.78" font-family="Times,serif" font-size="14.00">Async all&#45;gather</text>
<text text-anchor="middle" x="1560.92" y="-18.78" font-family="Times,serif" font-size="14.00">From 16 experts</text>
</g>
<!-- layer3_routing&#45;&gt;layer3_gather -->
<g id="edge6" class="edge">
<title>layer3_routing&#45;&gt;layer3_gather</title>
<path fill="none" stroke="black" d="M1429.01,-37.48C1437.42,-37.48 1445.88,-37.48 1454.25,-37.48"/>
<polygon fill="black" stroke="black" points="1454.39,-40.98 1464.39,-37.48 1454.39,-33.98 1454.39,-40.98"/>
</g>
<!-- layer4_routing -->
<g id="node8" class="node">
<title>layer4_routing</title>
<ellipse fill="none" stroke="black" cx="1806.22" cy="-37.48" rx="113.27" ry="37.45"/>
<text text-anchor="middle" x="1806.22" y="-48.78" font-family="Times,serif" font-size="14.00">Layer 4 Routing</text>
<text text-anchor="middle" x="1806.22" y="-33.78" font-family="Times,serif" font-size="14.00">Async token routing</text>
<text text-anchor="middle" x="1806.22" y="-18.78" font-family="Times,serif" font-size="14.00">To 16 experts</text>
</g>
<!-- layer3_gather&#45;&gt;layer4_routing -->
<g id="edge7" class="edge">
<title>layer3_gather&#45;&gt;layer4_routing</title>
<path fill="none" stroke="black" d="M1657.38,-37.48C1665.8,-37.48 1674.4,-37.48 1683,-37.48"/>
<polygon fill="black" stroke="black" points="1683.08,-40.98 1693.08,-37.48 1683.08,-33.98 1683.08,-40.98"/>
</g>
<!-- layer4_gather -->
<g id="node9" class="node">
<title>layer4_gather</title>
<ellipse fill="none" stroke="black" cx="2051.52" cy="-37.48" rx="96.33" ry="37.45"/>
<text text-anchor="middle" x="2051.52" y="-48.78" font-family="Times,serif" font-size="14.00">Layer 4 Gather</text>
<text text-anchor="middle" x="2051.52" y="-33.78" font-family="Times,serif" font-size="14.00">Async all&#45;gather</text>
<text text-anchor="middle" x="2051.52" y="-18.78" font-family="Times,serif" font-size="14.00">From 16 experts</text>
</g>
<!-- layer4_routing&#45;&gt;layer4_gather -->
<g id="edge8" class="edge">
<title>layer4_routing&#45;&gt;layer4_gather</title>
<path fill="none" stroke="black" d="M1919.61,-37.48C1928.02,-37.48 1936.49,-37.48 1944.86,-37.48"/>
<polygon fill="black" stroke="black" points="1945,-40.98 1955,-37.48 1945,-33.98 1945,-40.98"/>
</g>
<!-- output_collect -->
<g id="node10" class="node">
<title>output_collect</title>
<ellipse fill="none" stroke="black" cx="2284.81" cy="-37.48" rx="101.23" ry="37.45"/>
<text text-anchor="middle" x="2284.81" y="-48.78" font-family="Times,serif" font-size="14.00">Output Collection</text>
<text text-anchor="middle" x="2284.81" y="-33.78" font-family="Times,serif" font-size="14.00">[1024 tokens]</text>
<text text-anchor="middle" x="2284.81" y="-18.78" font-family="Times,serif" font-size="14.00">From GPU 63</text>
</g>
<!-- layer4_gather&#45;&gt;output_collect -->
<g id="edge9" class="edge">
<title>layer4_gather&#45;&gt;output_collect</title>
<path fill="none" stroke="black" d="M2147.93,-37.48C2156.25,-37.48 2164.71,-37.48 2173.13,-37.48"/>
<polygon fill="black" stroke="black" points="2173.38,-40.98 2183.38,-37.48 2173.38,-33.98 2173.38,-40.98"/>
</g>
</g>
</svg>
