<?xml version="1.0" encoding="UTF-8" standalone="no"?>
<!DOCTYPE svg PUBLIC "-//W3C//DTD SVG 1.1//EN"
 "http://www.w3.org/Graphics/SVG/1.1/DTD/svg11.dtd">
<!-- Generated by graphviz version 2.43.0 (0)
 -->
<!-- Title: %3 Pages: 1 -->
<svg width="580pt" height="6083pt"
 viewBox="0.00 0.00 579.91 6083.00" xmlns="http://www.w3.org/2000/svg" xmlns:xlink="http://www.w3.org/1999/xlink">
<g id="graph0" class="graph" transform="scale(1 1) rotate(0) translate(4 6079)">
<title>%3</title>
<polygon fill="white" stroke="transparent" points="-4,4 -4,-6079 575.91,-6079 575.91,4 -4,4"/>
<!-- input -->
<g id="node1" class="node">
<title>input</title>
<polygon fill="lightgreen" stroke="black" points="571.75,-6075 197.62,-6075 101.38,-5969 475.51,-5969 571.75,-6075"/>
<text text-anchor="middle" x="336.56" y="-6033.3" font-family="Times,serif" font-size="14.00">Input</text>
<text text-anchor="middle" x="336.56" y="-6018.3" font-family="Times,serif" font-size="14.00">(B=1024, L=16384, d=8192)</text>
<text text-anchor="middle" x="336.56" y="-6003.3" font-family="Times,serif" font-size="14.00">All GPUs</text>
</g>
<!-- seq_split -->
<g id="node2" class="node">
<title>seq_split</title>
<ellipse fill="orange" stroke="black" cx="336.56" cy="-5834.92" rx="154.3" ry="48.17"/>
<text text-anchor="middle" x="336.56" y="-5853.72" font-family="Times,serif" font-size="14.00">Sequence Split</text>
<text text-anchor="middle" x="336.56" y="-5838.72" font-family="Times,serif" font-size="14.00">(B=1024, L=1024, d=8192)</text>
<text text-anchor="middle" x="336.56" y="-5823.72" font-family="Times,serif" font-size="14.00">16 chunks</text>
<text text-anchor="middle" x="336.56" y="-5808.72" font-family="Times,serif" font-size="14.00">All GPUs</text>
</g>
<!-- input&#45;&gt;seq_split -->
<g id="edge1" class="edge">
<title>input&#45;&gt;seq_split</title>
<path fill="none" stroke="black" d="M336.56,-5968.89C336.56,-5968.89 336.56,-5893.04 336.56,-5893.04"/>
<polygon fill="black" stroke="black" points="340.06,-5893.04 336.56,-5883.04 333.06,-5893.04 340.06,-5893.04"/>
</g>
<!-- embed -->
<g id="node3" class="node">
<title>embed</title>
<polygon fill="lightyellow" stroke="black" points="445.56,-5700.83 227.56,-5700.83 227.56,-5632.83 445.56,-5632.83 445.56,-5700.83"/>
<text text-anchor="middle" x="336.56" y="-5685.63" font-family="Times,serif" font-size="14.00">Embedding</text>
<text text-anchor="middle" x="336.56" y="-5670.63" font-family="Times,serif" font-size="14.00">(B=1024, L=1024, d=8192)</text>
<text text-anchor="middle" x="336.56" y="-5655.63" font-family="Times,serif" font-size="14.00">Per GPU</text>
<text text-anchor="middle" x="336.56" y="-5640.63" font-family="Times,serif" font-size="14.00">All GPUs 0&#45;15</text>
</g>
<!-- seq_split&#45;&gt;embed -->
<g id="edge2" class="edge">
<title>seq_split&#45;&gt;embed</title>
<path fill="none" stroke="black" d="M336.56,-5786.75C336.56,-5786.75 336.56,-5710.86 336.56,-5710.86"/>
<polygon fill="black" stroke="black" points="340.06,-5710.86 336.56,-5700.86 333.06,-5710.86 340.06,-5710.86"/>
</g>
<!-- l0_qkv -->
<g id="node4" class="node">
<title>l0_qkv</title>
<polygon fill="lightcoral" stroke="black" points="347.56,-5546.83 129.56,-5546.83 129.56,-5493.83 347.56,-5493.83 347.56,-5546.83"/>
<text text-anchor="middle" x="238.56" y="-5531.63" font-family="Times,serif" font-size="14.00">Layer0 QKV Proj</text>
<text text-anchor="middle" x="238.56" y="-5516.63" font-family="Times,serif" font-size="14.00">(B=1024, L=1024, d=8192)</text>
<text text-anchor="middle" x="238.56" y="-5501.63" font-family="Times,serif" font-size="14.00">All GPUs 0&#45;15</text>
</g>
<!-- embed&#45;&gt;l0_qkv -->
<g id="edge3" class="edge">
<title>embed&#45;&gt;l0_qkv</title>
<path fill="none" stroke="black" d="M287.56,-5632.48C287.56,-5632.48 287.56,-5557.15 287.56,-5557.15"/>
<polygon fill="black" stroke="black" points="291.06,-5557.15 287.56,-5547.15 284.06,-5557.15 291.06,-5557.15"/>
</g>
<!-- l0_attn_res -->
<g id="node8" class="node">
<title>l0_attn_res</title>
<polygon fill="lightgreen" stroke="black" points="313.56,-4932.67 95.56,-4879.67 313.56,-4826.67 531.56,-4879.67 313.56,-4932.67"/>
<text text-anchor="middle" x="313.56" y="-4890.97" font-family="Times,serif" font-size="14.00">Layer0 Attention Residual</text>
<text text-anchor="middle" x="313.56" y="-4875.97" font-family="Times,serif" font-size="14.00">(B=1024, L=1024, d=8192)</text>
<text text-anchor="middle" x="313.56" y="-4860.97" font-family="Times,serif" font-size="14.00">All GPUs 0&#45;15</text>
</g>
<!-- embed&#45;&gt;l0_attn_res -->
<g id="edge7" class="edge">
<title>embed&#45;&gt;l0_attn_res</title>
<path fill="none" stroke="black" d="M396.56,-5632.76C396.56,-5632.76 396.56,-4922.89 396.56,-4922.89"/>
<polygon fill="black" stroke="black" points="400.06,-4922.89 396.56,-4912.89 393.06,-4922.89 400.06,-4922.89"/>
</g>
<!-- l0_ring_attn -->
<g id="node5" class="node">
<title>l0_ring_attn</title>
<polygon fill="lightcoral" stroke="black" points="324.56,-5407.83 106.56,-5407.83 106.56,-5339.83 324.56,-5339.83 324.56,-5407.83"/>
<text text-anchor="middle" x="215.56" y="-5392.63" font-family="Times,serif" font-size="14.00">Layer0 Ring Attention</text>
<text text-anchor="middle" x="215.56" y="-5377.63" font-family="Times,serif" font-size="14.00">(B=1024, L=1024, d=8192)</text>
<text text-anchor="middle" x="215.56" y="-5362.63" font-family="Times,serif" font-size="14.00">16 stages</text>
<text text-anchor="middle" x="215.56" y="-5347.63" font-family="Times,serif" font-size="14.00">All GPUs 0&#45;15</text>
</g>
<!-- l0_qkv&#45;&gt;l0_ring_attn -->
<g id="edge4" class="edge">
<title>l0_qkv&#45;&gt;l0_ring_attn</title>
<path fill="none" stroke="black" d="M227.06,-5493.8C227.06,-5493.8 227.06,-5417.91 227.06,-5417.91"/>
<polygon fill="black" stroke="black" points="230.56,-5417.91 227.06,-5407.91 223.56,-5417.91 230.56,-5417.91"/>
</g>
<!-- l0_ring_comm -->
<g id="node6" class="node">
<title>l0_ring_comm</title>
<ellipse fill="orange" stroke="black" cx="191.56" cy="-5205.75" rx="155.63" ry="48.17"/>
<text text-anchor="middle" x="191.56" y="-5224.55" font-family="Times,serif" font-size="14.00">Layer0 Ring Communication</text>
<text text-anchor="middle" x="191.56" y="-5209.55" font-family="Times,serif" font-size="14.00">KV Exchange</text>
<text text-anchor="middle" x="191.56" y="-5194.55" font-family="Times,serif" font-size="14.00">Ring Topology</text>
<text text-anchor="middle" x="191.56" y="-5179.55" font-family="Times,serif" font-size="14.00">All GPUs 0&#45;15</text>
</g>
<!-- l0_ring_attn&#45;&gt;l0_ring_comm -->
<g id="edge5" class="edge">
<title>l0_ring_attn&#45;&gt;l0_ring_comm</title>
<path fill="none" stroke="black" d="M215.56,-5339.82C215.56,-5339.82 215.56,-5263.41 215.56,-5263.41"/>
<polygon fill="black" stroke="black" points="219.06,-5263.41 215.56,-5253.41 212.06,-5263.41 219.06,-5263.41"/>
</g>
<!-- l0_attn_out -->
<g id="node7" class="node">
<title>l0_attn_out</title>
<polygon fill="lightcoral" stroke="black" points="324.56,-5071.67 106.56,-5071.67 106.56,-5018.67 324.56,-5018.67 324.56,-5071.67"/>
<text text-anchor="middle" x="215.56" y="-5056.47" font-family="Times,serif" font-size="14.00">Layer0 Attention Out</text>
<text text-anchor="middle" x="215.56" y="-5041.47" font-family="Times,serif" font-size="14.00">(B=1024, L=1024, d=8192)</text>
<text text-anchor="middle" x="215.56" y="-5026.47" font-family="Times,serif" font-size="14.00">All GPUs 0&#45;15</text>
</g>
<!-- l0_ring_comm&#45;&gt;l0_attn_out -->
<g id="edge6" class="edge">
<title>l0_ring_comm&#45;&gt;l0_attn_out</title>
<path fill="none" stroke="black" d="M215.56,-5158C215.56,-5158 215.56,-5081.99 215.56,-5081.99"/>
<polygon fill="black" stroke="black" points="219.06,-5081.99 215.56,-5071.99 212.06,-5081.99 219.06,-5081.99"/>
</g>
<!-- l0_attn_out&#45;&gt;l0_attn_res -->
<g id="edge8" class="edge">
<title>l0_attn_out&#45;&gt;l0_attn_res</title>
<path fill="none" stroke="black" d="M215.56,-5018.58C215.56,-5018.58 215.56,-4918.98 215.56,-4918.98"/>
<polygon fill="black" stroke="black" points="219.06,-4918.98 215.56,-4908.98 212.06,-4918.98 219.06,-4918.98"/>
</g>
<!-- l0_mlp_up -->
<g id="node9" class="node">
<title>l0_mlp_up</title>
<polygon fill="lightcoral" stroke="black" points="326.06,-4740.67 99.06,-4740.67 99.06,-4687.67 326.06,-4687.67 326.06,-4740.67"/>
<text text-anchor="middle" x="212.56" y="-4725.47" font-family="Times,serif" font-size="14.00">Layer0 MLP Up</text>
<text text-anchor="middle" x="212.56" y="-4710.47" font-family="Times,serif" font-size="14.00">(B=1024, L=1024, d=32768)</text>
<text text-anchor="middle" x="212.56" y="-4695.47" font-family="Times,serif" font-size="14.00">All GPUs 0&#45;15</text>
</g>
<!-- l0_attn_res&#45;&gt;l0_mlp_up -->
<g id="edge9" class="edge">
<title>l0_attn_res&#45;&gt;l0_mlp_up</title>
<path fill="none" stroke="black" d="M212.56,-4851.22C212.56,-4851.22 212.56,-4750.88 212.56,-4750.88"/>
<polygon fill="black" stroke="black" points="216.06,-4750.88 212.56,-4740.88 209.06,-4750.88 216.06,-4750.88"/>
</g>
<!-- l0_mlp_res -->
<g id="node11" class="node">
<title>l0_mlp_res</title>
<polygon fill="lightgreen" stroke="black" points="313.56,-4462.67 95.56,-4409.67 313.56,-4356.67 531.56,-4409.67 313.56,-4462.67"/>
<text text-anchor="middle" x="313.56" y="-4420.97" font-family="Times,serif" font-size="14.00">Layer0 MLP Residual</text>
<text text-anchor="middle" x="313.56" y="-4405.97" font-family="Times,serif" font-size="14.00">(B=1024, L=1024, d=8192)</text>
<text text-anchor="middle" x="313.56" y="-4390.97" font-family="Times,serif" font-size="14.00">All GPUs 0&#45;15</text>
</g>
<!-- l0_attn_res&#45;&gt;l0_mlp_res -->
<g id="edge11" class="edge">
<title>l0_attn_res&#45;&gt;l0_mlp_res</title>
<path fill="none" stroke="black" d="M428.81,-4854.4C428.81,-4854.4 428.81,-4444.77 428.81,-4444.77"/>
<polygon fill="black" stroke="black" points="432.31,-4444.77 428.81,-4434.77 425.31,-4444.77 432.31,-4444.77"/>
</g>
<!-- l0_mlp_down -->
<g id="node10" class="node">
<title>l0_mlp_down</title>
<polygon fill="lightcoral" stroke="black" points="324.56,-4601.67 106.56,-4601.67 106.56,-4548.67 324.56,-4548.67 324.56,-4601.67"/>
<text text-anchor="middle" x="215.56" y="-4586.47" font-family="Times,serif" font-size="14.00">Layer0 MLP Down</text>
<text text-anchor="middle" x="215.56" y="-4571.47" font-family="Times,serif" font-size="14.00">(B=1024, L=1024, d=8192)</text>
<text text-anchor="middle" x="215.56" y="-4556.47" font-family="Times,serif" font-size="14.00">All GPUs 0&#45;15</text>
</g>
<!-- l0_mlp_up&#45;&gt;l0_mlp_down -->
<g id="edge10" class="edge">
<title>l0_mlp_up&#45;&gt;l0_mlp_down</title>
<path fill="none" stroke="black" d="M215.56,-4687.37C215.56,-4687.37 215.56,-4611.88 215.56,-4611.88"/>
<polygon fill="black" stroke="black" points="219.06,-4611.88 215.56,-4601.88 212.06,-4611.88 219.06,-4611.88"/>
</g>
<!-- l0_mlp_down&#45;&gt;l0_mlp_res -->
<g id="edge12" class="edge">
<title>l0_mlp_down&#45;&gt;l0_mlp_res</title>
<path fill="none" stroke="black" d="M215.56,-4548.58C215.56,-4548.58 215.56,-4448.98 215.56,-4448.98"/>
<polygon fill="black" stroke="black" points="219.06,-4448.98 215.56,-4438.98 212.06,-4448.98 219.06,-4448.98"/>
</g>
<!-- l1_qkv -->
<g id="node12" class="node">
<title>l1_qkv</title>
<polygon fill="lightblue" stroke="black" points="324.56,-4270.67 106.56,-4270.67 106.56,-4217.67 324.56,-4217.67 324.56,-4270.67"/>
<text text-anchor="middle" x="215.56" y="-4255.47" font-family="Times,serif" font-size="14.00">Layer1 QKV Proj</text>
<text text-anchor="middle" x="215.56" y="-4240.47" font-family="Times,serif" font-size="14.00">(B=1024, L=1024, d=8192)</text>
<text text-anchor="middle" x="215.56" y="-4225.47" font-family="Times,serif" font-size="14.00">All GPUs 0&#45;15</text>
</g>
<!-- l0_mlp_res&#45;&gt;l1_qkv -->
<g id="edge13" class="edge">
<title>l0_mlp_res&#45;&gt;l1_qkv</title>
<path fill="none" stroke="black" d="M215.56,-4380.46C215.56,-4380.46 215.56,-4280.89 215.56,-4280.89"/>
<polygon fill="black" stroke="black" points="219.06,-4280.89 215.56,-4270.89 212.06,-4280.89 219.06,-4280.89"/>
</g>
<!-- l1_attn_res -->
<g id="node16" class="node">
<title>l1_attn_res</title>
<polygon fill="lightgreen" stroke="black" points="301.56,-3656.5 83.56,-3603.5 301.56,-3550.5 519.56,-3603.5 301.56,-3656.5"/>
<text text-anchor="middle" x="301.56" y="-3614.8" font-family="Times,serif" font-size="14.00">Layer1 Attention Residual</text>
<text text-anchor="middle" x="301.56" y="-3599.8" font-family="Times,serif" font-size="14.00">(B=1024, L=1024, d=8192)</text>
<text text-anchor="middle" x="301.56" y="-3584.8" font-family="Times,serif" font-size="14.00">All GPUs 0&#45;15</text>
</g>
<!-- l0_mlp_res&#45;&gt;l1_attn_res -->
<g id="edge17" class="edge">
<title>l0_mlp_res&#45;&gt;l1_attn_res</title>
<path fill="none" stroke="black" d="M427.35,-4384.21C427.35,-4384.21 427.35,-3636.22 427.35,-3636.22"/>
<polygon fill="black" stroke="black" points="430.85,-3636.22 427.35,-3626.22 423.85,-3636.23 430.85,-3636.22"/>
</g>
<!-- l1_ring_attn -->
<g id="node13" class="node">
<title>l1_ring_attn</title>
<polygon fill="lightblue" stroke="black" points="312.56,-4131.67 94.56,-4131.67 94.56,-4063.67 312.56,-4063.67 312.56,-4131.67"/>
<text text-anchor="middle" x="203.56" y="-4116.47" font-family="Times,serif" font-size="14.00">Layer1 Ring Attention</text>
<text text-anchor="middle" x="203.56" y="-4101.47" font-family="Times,serif" font-size="14.00">(B=1024, L=1024, d=8192)</text>
<text text-anchor="middle" x="203.56" y="-4086.47" font-family="Times,serif" font-size="14.00">16 stages</text>
<text text-anchor="middle" x="203.56" y="-4071.47" font-family="Times,serif" font-size="14.00">All GPUs 0&#45;15</text>
</g>
<!-- l1_qkv&#45;&gt;l1_ring_attn -->
<g id="edge14" class="edge">
<title>l1_qkv&#45;&gt;l1_ring_attn</title>
<path fill="none" stroke="black" d="M209.56,-4217.64C209.56,-4217.64 209.56,-4141.75 209.56,-4141.75"/>
<polygon fill="black" stroke="black" points="213.06,-4141.75 209.56,-4131.75 206.06,-4141.75 213.06,-4141.75"/>
</g>
<!-- l1_ring_comm -->
<g id="node14" class="node">
<title>l1_ring_comm</title>
<ellipse fill="orange" stroke="black" cx="179.56" cy="-3929.58" rx="155.63" ry="48.17"/>
<text text-anchor="middle" x="179.56" y="-3948.38" font-family="Times,serif" font-size="14.00">Layer1 Ring Communication</text>
<text text-anchor="middle" x="179.56" y="-3933.38" font-family="Times,serif" font-size="14.00">KV Exchange</text>
<text text-anchor="middle" x="179.56" y="-3918.38" font-family="Times,serif" font-size="14.00">Ring Topology</text>
<text text-anchor="middle" x="179.56" y="-3903.38" font-family="Times,serif" font-size="14.00">All GPUs 0&#45;15</text>
</g>
<!-- l1_ring_attn&#45;&gt;l1_ring_comm -->
<g id="edge15" class="edge">
<title>l1_ring_attn&#45;&gt;l1_ring_comm</title>
<path fill="none" stroke="black" d="M203.56,-4063.65C203.56,-4063.65 203.56,-3987.24 203.56,-3987.24"/>
<polygon fill="black" stroke="black" points="207.06,-3987.24 203.56,-3977.24 200.06,-3987.24 207.06,-3987.24"/>
</g>
<!-- l1_attn_out -->
<g id="node15" class="node">
<title>l1_attn_out</title>
<polygon fill="lightblue" stroke="black" points="312.56,-3795.5 94.56,-3795.5 94.56,-3742.5 312.56,-3742.5 312.56,-3795.5"/>
<text text-anchor="middle" x="203.56" y="-3780.3" font-family="Times,serif" font-size="14.00">Layer1 Attention Out</text>
<text text-anchor="middle" x="203.56" y="-3765.3" font-family="Times,serif" font-size="14.00">(B=1024, L=1024, d=8192)</text>
<text text-anchor="middle" x="203.56" y="-3750.3" font-family="Times,serif" font-size="14.00">All GPUs 0&#45;15</text>
</g>
<!-- l1_ring_comm&#45;&gt;l1_attn_out -->
<g id="edge16" class="edge">
<title>l1_ring_comm&#45;&gt;l1_attn_out</title>
<path fill="none" stroke="black" d="M203.56,-3881.84C203.56,-3881.84 203.56,-3805.82 203.56,-3805.82"/>
<polygon fill="black" stroke="black" points="207.06,-3805.82 203.56,-3795.82 200.06,-3805.82 207.06,-3805.82"/>
</g>
<!-- l1_attn_out&#45;&gt;l1_attn_res -->
<g id="edge18" class="edge">
<title>l1_attn_out&#45;&gt;l1_attn_res</title>
<path fill="none" stroke="black" d="M203.56,-3742.41C203.56,-3742.41 203.56,-3642.81 203.56,-3642.81"/>
<polygon fill="black" stroke="black" points="207.06,-3642.81 203.56,-3632.81 200.06,-3642.81 207.06,-3642.81"/>
</g>
<!-- l1_mlp_up -->
<g id="node17" class="node">
<title>l1_mlp_up</title>
<polygon fill="lightblue" stroke="black" points="314.06,-3464.5 87.06,-3464.5 87.06,-3411.5 314.06,-3411.5 314.06,-3464.5"/>
<text text-anchor="middle" x="200.56" y="-3449.3" font-family="Times,serif" font-size="14.00">Layer1 MLP Up</text>
<text text-anchor="middle" x="200.56" y="-3434.3" font-family="Times,serif" font-size="14.00">(B=1024, L=1024, d=32768)</text>
<text text-anchor="middle" x="200.56" y="-3419.3" font-family="Times,serif" font-size="14.00">All GPUs 0&#45;15</text>
</g>
<!-- l1_attn_res&#45;&gt;l1_mlp_up -->
<g id="edge19" class="edge">
<title>l1_attn_res&#45;&gt;l1_mlp_up</title>
<path fill="none" stroke="black" d="M200.56,-3575.05C200.56,-3575.05 200.56,-3474.71 200.56,-3474.71"/>
<polygon fill="black" stroke="black" points="204.06,-3474.71 200.56,-3464.71 197.06,-3474.71 204.06,-3474.71"/>
</g>
<!-- l1_mlp_res -->
<g id="node19" class="node">
<title>l1_mlp_res</title>
<polygon fill="lightgreen" stroke="black" points="301.56,-3186.5 83.56,-3133.5 301.56,-3080.5 519.56,-3133.5 301.56,-3186.5"/>
<text text-anchor="middle" x="301.56" y="-3144.8" font-family="Times,serif" font-size="14.00">Layer1 MLP Residual</text>
<text text-anchor="middle" x="301.56" y="-3129.8" font-family="Times,serif" font-size="14.00">(B=1024, L=1024, d=8192)</text>
<text text-anchor="middle" x="301.56" y="-3114.8" font-family="Times,serif" font-size="14.00">All GPUs 0&#45;15</text>
</g>
<!-- l1_attn_res&#45;&gt;l1_mlp_res -->
<g id="edge21" class="edge">
<title>l1_attn_res&#45;&gt;l1_mlp_res</title>
<path fill="none" stroke="black" d="M416.81,-3578.23C416.81,-3578.23 416.81,-3168.61 416.81,-3168.61"/>
<polygon fill="black" stroke="black" points="420.31,-3168.61 416.81,-3158.61 413.31,-3168.61 420.31,-3168.61"/>
</g>
<!-- l1_mlp_down -->
<g id="node18" class="node">
<title>l1_mlp_down</title>
<polygon fill="lightblue" stroke="black" points="312.56,-3325.5 94.56,-3325.5 94.56,-3272.5 312.56,-3272.5 312.56,-3325.5"/>
<text text-anchor="middle" x="203.56" y="-3310.3" font-family="Times,serif" font-size="14.00">Layer1 MLP Down</text>
<text text-anchor="middle" x="203.56" y="-3295.3" font-family="Times,serif" font-size="14.00">(B=1024, L=1024, d=8192)</text>
<text text-anchor="middle" x="203.56" y="-3280.3" font-family="Times,serif" font-size="14.00">All GPUs 0&#45;15</text>
</g>
<!-- l1_mlp_up&#45;&gt;l1_mlp_down -->
<g id="edge20" class="edge">
<title>l1_mlp_up&#45;&gt;l1_mlp_down</title>
<path fill="none" stroke="black" d="M203.56,-3411.2C203.56,-3411.2 203.56,-3335.72 203.56,-3335.72"/>
<polygon fill="black" stroke="black" points="207.06,-3335.72 203.56,-3325.72 200.06,-3335.72 207.06,-3335.72"/>
</g>
<!-- l1_mlp_down&#45;&gt;l1_mlp_res -->
<g id="edge22" class="edge">
<title>l1_mlp_down&#45;&gt;l1_mlp_res</title>
<path fill="none" stroke="black" d="M203.56,-3272.41C203.56,-3272.41 203.56,-3172.81 203.56,-3172.81"/>
<polygon fill="black" stroke="black" points="207.06,-3172.81 203.56,-3162.81 200.06,-3172.81 207.06,-3172.81"/>
</g>
<!-- l2_qkv -->
<g id="node20" class="node">
<title>l2_qkv</title>
<polygon fill="lightcoral" stroke="black" points="312.56,-2994.5 94.56,-2994.5 94.56,-2941.5 312.56,-2941.5 312.56,-2994.5"/>
<text text-anchor="middle" x="203.56" y="-2979.3" font-family="Times,serif" font-size="14.00">Layer2 QKV Proj</text>
<text text-anchor="middle" x="203.56" y="-2964.3" font-family="Times,serif" font-size="14.00">(B=1024, L=1024, d=8192)</text>
<text text-anchor="middle" x="203.56" y="-2949.3" font-family="Times,serif" font-size="14.00">All GPUs 0&#45;15</text>
</g>
<!-- l1_mlp_res&#45;&gt;l2_qkv -->
<g id="edge23" class="edge">
<title>l1_mlp_res&#45;&gt;l2_qkv</title>
<path fill="none" stroke="black" d="M203.56,-3104.29C203.56,-3104.29 203.56,-3004.73 203.56,-3004.73"/>
<polygon fill="black" stroke="black" points="207.06,-3004.73 203.56,-2994.73 200.06,-3004.73 207.06,-3004.73"/>
</g>
<!-- l2_attn_res -->
<g id="node24" class="node">
<title>l2_attn_res</title>
<polygon fill="lightgreen" stroke="black" points="289.56,-2380.33 71.56,-2327.33 289.56,-2274.33 507.56,-2327.33 289.56,-2380.33"/>
<text text-anchor="middle" x="289.56" y="-2338.63" font-family="Times,serif" font-size="14.00">Layer2 Attention Residual</text>
<text text-anchor="middle" x="289.56" y="-2323.63" font-family="Times,serif" font-size="14.00">(B=1024, L=1024, d=8192)</text>
<text text-anchor="middle" x="289.56" y="-2308.63" font-family="Times,serif" font-size="14.00">All GPUs 0&#45;15</text>
</g>
<!-- l1_mlp_res&#45;&gt;l2_attn_res -->
<g id="edge27" class="edge">
<title>l1_mlp_res&#45;&gt;l2_attn_res</title>
<path fill="none" stroke="black" d="M415.35,-3108.04C415.35,-3108.04 415.35,-2360.06 415.35,-2360.06"/>
<polygon fill="black" stroke="black" points="418.85,-2360.06 415.35,-2350.06 411.85,-2360.06 418.85,-2360.06"/>
</g>
<!-- l2_ring_attn -->
<g id="node21" class="node">
<title>l2_ring_attn</title>
<polygon fill="lightcoral" stroke="black" points="300.56,-2855.5 82.56,-2855.5 82.56,-2787.5 300.56,-2787.5 300.56,-2855.5"/>
<text text-anchor="middle" x="191.56" y="-2840.3" font-family="Times,serif" font-size="14.00">Layer2 Ring Attention</text>
<text text-anchor="middle" x="191.56" y="-2825.3" font-family="Times,serif" font-size="14.00">(B=1024, L=1024, d=8192)</text>
<text text-anchor="middle" x="191.56" y="-2810.3" font-family="Times,serif" font-size="14.00">16 stages</text>
<text text-anchor="middle" x="191.56" y="-2795.3" font-family="Times,serif" font-size="14.00">All GPUs 0&#45;15</text>
</g>
<!-- l2_qkv&#45;&gt;l2_ring_attn -->
<g id="edge24" class="edge">
<title>l2_qkv&#45;&gt;l2_ring_attn</title>
<path fill="none" stroke="black" d="M197.56,-2941.47C197.56,-2941.47 197.56,-2865.58 197.56,-2865.58"/>
<polygon fill="black" stroke="black" points="201.06,-2865.58 197.56,-2855.58 194.06,-2865.58 201.06,-2865.58"/>
</g>
<!-- l2_ring_comm -->
<g id="node22" class="node">
<title>l2_ring_comm</title>
<ellipse fill="orange" stroke="black" cx="167.56" cy="-2653.42" rx="155.63" ry="48.17"/>
<text text-anchor="middle" x="167.56" y="-2672.22" font-family="Times,serif" font-size="14.00">Layer2 Ring Communication</text>
<text text-anchor="middle" x="167.56" y="-2657.22" font-family="Times,serif" font-size="14.00">KV Exchange</text>
<text text-anchor="middle" x="167.56" y="-2642.22" font-family="Times,serif" font-size="14.00">Ring Topology</text>
<text text-anchor="middle" x="167.56" y="-2627.22" font-family="Times,serif" font-size="14.00">All GPUs 0&#45;15</text>
</g>
<!-- l2_ring_attn&#45;&gt;l2_ring_comm -->
<g id="edge25" class="edge">
<title>l2_ring_attn&#45;&gt;l2_ring_comm</title>
<path fill="none" stroke="black" d="M191.56,-2787.49C191.56,-2787.49 191.56,-2711.07 191.56,-2711.07"/>
<polygon fill="black" stroke="black" points="195.06,-2711.07 191.56,-2701.07 188.06,-2711.07 195.06,-2711.07"/>
</g>
<!-- l2_attn_out -->
<g id="node23" class="node">
<title>l2_attn_out</title>
<polygon fill="lightcoral" stroke="black" points="300.56,-2519.33 82.56,-2519.33 82.56,-2466.33 300.56,-2466.33 300.56,-2519.33"/>
<text text-anchor="middle" x="191.56" y="-2504.13" font-family="Times,serif" font-size="14.00">Layer2 Attention Out</text>
<text text-anchor="middle" x="191.56" y="-2489.13" font-family="Times,serif" font-size="14.00">(B=1024, L=1024, d=8192)</text>
<text text-anchor="middle" x="191.56" y="-2474.13" font-family="Times,serif" font-size="14.00">All GPUs 0&#45;15</text>
</g>
<!-- l2_ring_comm&#45;&gt;l2_attn_out -->
<g id="edge26" class="edge">
<title>l2_ring_comm&#45;&gt;l2_attn_out</title>
<path fill="none" stroke="black" d="M191.56,-2605.67C191.56,-2605.67 191.56,-2529.65 191.56,-2529.65"/>
<polygon fill="black" stroke="black" points="195.06,-2529.65 191.56,-2519.65 188.06,-2529.65 195.06,-2529.65"/>
</g>
<!-- l2_attn_out&#45;&gt;l2_attn_res -->
<g id="edge28" class="edge">
<title>l2_attn_out&#45;&gt;l2_attn_res</title>
<path fill="none" stroke="black" d="M191.56,-2466.24C191.56,-2466.24 191.56,-2366.65 191.56,-2366.65"/>
<polygon fill="black" stroke="black" points="195.06,-2366.65 191.56,-2356.65 188.06,-2366.65 195.06,-2366.65"/>
</g>
<!-- l2_mlp_up -->
<g id="node25" class="node">
<title>l2_mlp_up</title>
<polygon fill="lightcoral" stroke="black" points="302.06,-2188.33 75.06,-2188.33 75.06,-2135.33 302.06,-2135.33 302.06,-2188.33"/>
<text text-anchor="middle" x="188.56" y="-2173.13" font-family="Times,serif" font-size="14.00">Layer2 MLP Up</text>
<text text-anchor="middle" x="188.56" y="-2158.13" font-family="Times,serif" font-size="14.00">(B=1024, L=1024, d=32768)</text>
<text text-anchor="middle" x="188.56" y="-2143.13" font-family="Times,serif" font-size="14.00">All GPUs 0&#45;15</text>
</g>
<!-- l2_attn_res&#45;&gt;l2_mlp_up -->
<g id="edge29" class="edge">
<title>l2_attn_res&#45;&gt;l2_mlp_up</title>
<path fill="none" stroke="black" d="M188.56,-2298.88C188.56,-2298.88 188.56,-2198.54 188.56,-2198.54"/>
<polygon fill="black" stroke="black" points="192.06,-2198.54 188.56,-2188.54 185.06,-2198.54 192.06,-2198.54"/>
</g>
<!-- l2_mlp_res -->
<g id="node27" class="node">
<title>l2_mlp_res</title>
<polygon fill="lightgreen" stroke="black" points="289.56,-1910.33 71.56,-1857.33 289.56,-1804.33 507.56,-1857.33 289.56,-1910.33"/>
<text text-anchor="middle" x="289.56" y="-1868.63" font-family="Times,serif" font-size="14.00">Layer2 MLP Residual</text>
<text text-anchor="middle" x="289.56" y="-1853.63" font-family="Times,serif" font-size="14.00">(B=1024, L=1024, d=8192)</text>
<text text-anchor="middle" x="289.56" y="-1838.63" font-family="Times,serif" font-size="14.00">All GPUs 0&#45;15</text>
</g>
<!-- l2_attn_res&#45;&gt;l2_mlp_res -->
<g id="edge31" class="edge">
<title>l2_attn_res&#45;&gt;l2_mlp_res</title>
<path fill="none" stroke="black" d="M404.81,-2302.06C404.81,-2302.06 404.81,-1892.44 404.81,-1892.44"/>
<polygon fill="black" stroke="black" points="408.31,-1892.44 404.81,-1882.44 401.31,-1892.44 408.31,-1892.44"/>
</g>
<!-- l2_mlp_down -->
<g id="node26" class="node">
<title>l2_mlp_down</title>
<polygon fill="lightcoral" stroke="black" points="300.56,-2049.33 82.56,-2049.33 82.56,-1996.33 300.56,-1996.33 300.56,-2049.33"/>
<text text-anchor="middle" x="191.56" y="-2034.13" font-family="Times,serif" font-size="14.00">Layer2 MLP Down</text>
<text text-anchor="middle" x="191.56" y="-2019.13" font-family="Times,serif" font-size="14.00">(B=1024, L=1024, d=8192)</text>
<text text-anchor="middle" x="191.56" y="-2004.13" font-family="Times,serif" font-size="14.00">All GPUs 0&#45;15</text>
</g>
<!-- l2_mlp_up&#45;&gt;l2_mlp_down -->
<g id="edge30" class="edge">
<title>l2_mlp_up&#45;&gt;l2_mlp_down</title>
<path fill="none" stroke="black" d="M191.56,-2135.03C191.56,-2135.03 191.56,-2059.55 191.56,-2059.55"/>
<polygon fill="black" stroke="black" points="195.06,-2059.55 191.56,-2049.55 188.06,-2059.55 195.06,-2059.55"/>
</g>
<!-- l2_mlp_down&#45;&gt;l2_mlp_res -->
<g id="edge32" class="edge">
<title>l2_mlp_down&#45;&gt;l2_mlp_res</title>
<path fill="none" stroke="black" d="M191.56,-1996.24C191.56,-1996.24 191.56,-1896.65 191.56,-1896.65"/>
<polygon fill="black" stroke="black" points="195.06,-1896.65 191.56,-1886.65 188.06,-1896.65 195.06,-1896.65"/>
</g>
<!-- l3_qkv -->
<g id="node28" class="node">
<title>l3_qkv</title>
<polygon fill="lightblue" stroke="black" points="300.56,-1718.33 82.56,-1718.33 82.56,-1665.33 300.56,-1665.33 300.56,-1718.33"/>
<text text-anchor="middle" x="191.56" y="-1703.13" font-family="Times,serif" font-size="14.00">Layer3 QKV Proj</text>
<text text-anchor="middle" x="191.56" y="-1688.13" font-family="Times,serif" font-size="14.00">(B=1024, L=1024, d=8192)</text>
<text text-anchor="middle" x="191.56" y="-1673.13" font-family="Times,serif" font-size="14.00">All GPUs 0&#45;15</text>
</g>
<!-- l2_mlp_res&#45;&gt;l3_qkv -->
<g id="edge33" class="edge">
<title>l2_mlp_res&#45;&gt;l3_qkv</title>
<path fill="none" stroke="black" d="M191.56,-1828.13C191.56,-1828.13 191.56,-1728.56 191.56,-1728.56"/>
<polygon fill="black" stroke="black" points="195.06,-1728.56 191.56,-1718.56 188.06,-1728.56 195.06,-1728.56"/>
</g>
<!-- l3_attn_res -->
<g id="node32" class="node">
<title>l3_attn_res</title>
<polygon fill="lightgreen" stroke="black" points="277.56,-1104.17 59.56,-1051.17 277.56,-998.17 495.56,-1051.17 277.56,-1104.17"/>
<text text-anchor="middle" x="277.56" y="-1062.47" font-family="Times,serif" font-size="14.00">Layer3 Attention Residual</text>
<text text-anchor="middle" x="277.56" y="-1047.47" font-family="Times,serif" font-size="14.00">(B=1024, L=1024, d=8192)</text>
<text text-anchor="middle" x="277.56" y="-1032.47" font-family="Times,serif" font-size="14.00">All GPUs 0&#45;15</text>
</g>
<!-- l2_mlp_res&#45;&gt;l3_attn_res -->
<g id="edge37" class="edge">
<title>l2_mlp_res&#45;&gt;l3_attn_res</title>
<path fill="none" stroke="black" d="M403.35,-1831.87C403.35,-1831.87 403.35,-1083.89 403.35,-1083.89"/>
<polygon fill="black" stroke="black" points="406.85,-1083.89 403.35,-1073.89 399.85,-1083.89 406.85,-1083.89"/>
</g>
<!-- l3_ring_attn -->
<g id="node29" class="node">
<title>l3_ring_attn</title>
<polygon fill="lightblue" stroke="black" points="288.56,-1579.33 70.56,-1579.33 70.56,-1511.33 288.56,-1511.33 288.56,-1579.33"/>
<text text-anchor="middle" x="179.56" y="-1564.13" font-family="Times,serif" font-size="14.00">Layer3 Ring Attention</text>
<text text-anchor="middle" x="179.56" y="-1549.13" font-family="Times,serif" font-size="14.00">(B=1024, L=1024, d=8192)</text>
<text text-anchor="middle" x="179.56" y="-1534.13" font-family="Times,serif" font-size="14.00">16 stages</text>
<text text-anchor="middle" x="179.56" y="-1519.13" font-family="Times,serif" font-size="14.00">All GPUs 0&#45;15</text>
</g>
<!-- l3_qkv&#45;&gt;l3_ring_attn -->
<g id="edge34" class="edge">
<title>l3_qkv&#45;&gt;l3_ring_attn</title>
<path fill="none" stroke="black" d="M185.56,-1665.3C185.56,-1665.3 185.56,-1589.41 185.56,-1589.41"/>
<polygon fill="black" stroke="black" points="189.06,-1589.41 185.56,-1579.41 182.06,-1589.41 189.06,-1589.41"/>
</g>
<!-- l3_ring_comm -->
<g id="node30" class="node">
<title>l3_ring_comm</title>
<ellipse fill="orange" stroke="black" cx="155.56" cy="-1377.25" rx="155.63" ry="48.17"/>
<text text-anchor="middle" x="155.56" y="-1396.05" font-family="Times,serif" font-size="14.00">Layer3 Ring Communication</text>
<text text-anchor="middle" x="155.56" y="-1381.05" font-family="Times,serif" font-size="14.00">KV Exchange</text>
<text text-anchor="middle" x="155.56" y="-1366.05" font-family="Times,serif" font-size="14.00">Ring Topology</text>
<text text-anchor="middle" x="155.56" y="-1351.05" font-family="Times,serif" font-size="14.00">All GPUs 0&#45;15</text>
</g>
<!-- l3_ring_attn&#45;&gt;l3_ring_comm -->
<g id="edge35" class="edge">
<title>l3_ring_attn&#45;&gt;l3_ring_comm</title>
<path fill="none" stroke="black" d="M179.56,-1511.32C179.56,-1511.32 179.56,-1434.91 179.56,-1434.91"/>
<polygon fill="black" stroke="black" points="183.06,-1434.91 179.56,-1424.91 176.06,-1434.91 183.06,-1434.91"/>
</g>
<!-- l3_attn_out -->
<g id="node31" class="node">
<title>l3_attn_out</title>
<polygon fill="lightblue" stroke="black" points="288.56,-1243.17 70.56,-1243.17 70.56,-1190.17 288.56,-1190.17 288.56,-1243.17"/>
<text text-anchor="middle" x="179.56" y="-1227.97" font-family="Times,serif" font-size="14.00">Layer3 Attention Out</text>
<text text-anchor="middle" x="179.56" y="-1212.97" font-family="Times,serif" font-size="14.00">(B=1024, L=1024, d=8192)</text>
<text text-anchor="middle" x="179.56" y="-1197.97" font-family="Times,serif" font-size="14.00">All GPUs 0&#45;15</text>
</g>
<!-- l3_ring_comm&#45;&gt;l3_attn_out -->
<g id="edge36" class="edge">
<title>l3_ring_comm&#45;&gt;l3_attn_out</title>
<path fill="none" stroke="black" d="M179.56,-1329.5C179.56,-1329.5 179.56,-1253.49 179.56,-1253.49"/>
<polygon fill="black" stroke="black" points="183.06,-1253.49 179.56,-1243.49 176.06,-1253.49 183.06,-1253.49"/>
</g>
<!-- l3_attn_out&#45;&gt;l3_attn_res -->
<g id="edge38" class="edge">
<title>l3_attn_out&#45;&gt;l3_attn_res</title>
<path fill="none" stroke="black" d="M179.56,-1190.08C179.56,-1190.08 179.56,-1090.48 179.56,-1090.48"/>
<polygon fill="black" stroke="black" points="183.06,-1090.48 179.56,-1080.48 176.06,-1090.48 183.06,-1090.48"/>
</g>
<!-- l3_mlp_up -->
<g id="node33" class="node">
<title>l3_mlp_up</title>
<polygon fill="lightblue" stroke="black" points="290.06,-912.17 63.06,-912.17 63.06,-859.17 290.06,-859.17 290.06,-912.17"/>
<text text-anchor="middle" x="176.56" y="-896.97" font-family="Times,serif" font-size="14.00">Layer3 MLP Up</text>
<text text-anchor="middle" x="176.56" y="-881.97" font-family="Times,serif" font-size="14.00">(B=1024, L=1024, d=32768)</text>
<text text-anchor="middle" x="176.56" y="-866.97" font-family="Times,serif" font-size="14.00">All GPUs 0&#45;15</text>
</g>
<!-- l3_attn_res&#45;&gt;l3_mlp_up -->
<g id="edge39" class="edge">
<title>l3_attn_res&#45;&gt;l3_mlp_up</title>
<path fill="none" stroke="black" d="M176.56,-1022.72C176.56,-1022.72 176.56,-922.38 176.56,-922.38"/>
<polygon fill="black" stroke="black" points="180.06,-922.38 176.56,-912.38 173.06,-922.38 180.06,-922.38"/>
</g>
<!-- l3_mlp_res -->
<g id="node35" class="node">
<title>l3_mlp_res</title>
<polygon fill="lightgreen" stroke="black" points="277.56,-634.17 59.56,-581.17 277.56,-528.17 495.56,-581.17 277.56,-634.17"/>
<text text-anchor="middle" x="277.56" y="-592.47" font-family="Times,serif" font-size="14.00">Layer3 MLP Residual</text>
<text text-anchor="middle" x="277.56" y="-577.47" font-family="Times,serif" font-size="14.00">(B=1024, L=1024, d=8192)</text>
<text text-anchor="middle" x="277.56" y="-562.47" font-family="Times,serif" font-size="14.00">All GPUs 0&#45;15</text>
</g>
<!-- l3_attn_res&#45;&gt;l3_mlp_res -->
<g id="edge41" class="edge">
<title>l3_attn_res&#45;&gt;l3_mlp_res</title>
<path fill="none" stroke="black" d="M392.81,-1025.9C392.81,-1025.9 392.81,-616.27 392.81,-616.27"/>
<polygon fill="black" stroke="black" points="396.31,-616.27 392.81,-606.27 389.31,-616.27 396.31,-616.27"/>
</g>
<!-- l3_mlp_down -->
<g id="node34" class="node">
<title>l3_mlp_down</title>
<polygon fill="lightblue" stroke="black" points="288.56,-773.17 70.56,-773.17 70.56,-720.17 288.56,-720.17 288.56,-773.17"/>
<text text-anchor="middle" x="179.56" y="-757.97" font-family="Times,serif" font-size="14.00">Layer3 MLP Down</text>
<text text-anchor="middle" x="179.56" y="-742.97" font-family="Times,serif" font-size="14.00">(B=1024, L=1024, d=8192)</text>
<text text-anchor="middle" x="179.56" y="-727.97" font-family="Times,serif" font-size="14.00">All GPUs 0&#45;15</text>
</g>
<!-- l3_mlp_up&#45;&gt;l3_mlp_down -->
<g id="edge40" class="edge">
<title>l3_mlp_up&#45;&gt;l3_mlp_down</title>
<path fill="none" stroke="black" d="M179.56,-858.87C179.56,-858.87 179.56,-783.38 179.56,-783.38"/>
<polygon fill="black" stroke="black" points="183.06,-783.38 179.56,-773.38 176.06,-783.38 183.06,-783.38"/>
</g>
<!-- l3_mlp_down&#45;&gt;l3_mlp_res -->
<g id="edge42" class="edge">
<title>l3_mlp_down&#45;&gt;l3_mlp_res</title>
<path fill="none" stroke="black" d="M179.56,-720.08C179.56,-720.08 179.56,-620.48 179.56,-620.48"/>
<polygon fill="black" stroke="black" points="183.06,-620.48 179.56,-610.48 176.06,-620.48 183.06,-620.48"/>
</g>
<!-- seq_gather -->
<g id="node36" class="node">
<title>seq_gather</title>
<ellipse fill="orange" stroke="black" cx="277.56" cy="-394.08" rx="160.53" ry="48.17"/>
<text text-anchor="middle" x="277.56" y="-412.88" font-family="Times,serif" font-size="14.00">Sequence Gather</text>
<text text-anchor="middle" x="277.56" y="-397.88" font-family="Times,serif" font-size="14.00">(B=1024, L=16384, d=8192)</text>
<text text-anchor="middle" x="277.56" y="-382.88" font-family="Times,serif" font-size="14.00">16 chunks → full</text>
<text text-anchor="middle" x="277.56" y="-367.88" font-family="Times,serif" font-size="14.00">All GPUs 0&#45;15</text>
</g>
<!-- l3_mlp_res&#45;&gt;seq_gather -->
<g id="edge43" class="edge">
<title>l3_mlp_res&#45;&gt;seq_gather</title>
<path fill="none" stroke="black" d="M277.56,-528.06C277.56,-528.06 277.56,-452.21 277.56,-452.21"/>
<polygon fill="black" stroke="black" points="281.06,-452.21 277.56,-442.21 274.06,-452.21 281.06,-452.21"/>
</g>
<!-- lm_head -->
<g id="node37" class="node">
<title>lm_head</title>
<polygon fill="lightyellow" stroke="black" points="391.06,-260 164.06,-260 164.06,-192 391.06,-192 391.06,-260"/>
<text text-anchor="middle" x="277.56" y="-244.8" font-family="Times,serif" font-size="14.00">LM Head</text>
<text text-anchor="middle" x="277.56" y="-229.8" font-family="Times,serif" font-size="14.00">(B=1024, L=1024, d=32000)</text>
<text text-anchor="middle" x="277.56" y="-214.8" font-family="Times,serif" font-size="14.00">Per GPU</text>
<text text-anchor="middle" x="277.56" y="-199.8" font-family="Times,serif" font-size="14.00">All GPUs 0&#45;15</text>
</g>
<!-- seq_gather&#45;&gt;lm_head -->
<g id="edge44" class="edge">
<title>seq_gather&#45;&gt;lm_head</title>
<path fill="none" stroke="black" d="M277.56,-345.92C277.56,-345.92 277.56,-270.03 277.56,-270.03"/>
<polygon fill="black" stroke="black" points="281.06,-270.03 277.56,-260.03 274.06,-270.03 281.06,-270.03"/>
</g>
<!-- output -->
<g id="node38" class="node">
<title>output</title>
<polygon fill="lightgreen" stroke="black" points="522.41,-106 132.91,-106 32.72,0 422.21,0 522.41,-106"/>
<text text-anchor="middle" x="277.56" y="-64.3" font-family="Times,serif" font-size="14.00">Output Gather</text>
<text text-anchor="middle" x="277.56" y="-49.3" font-family="Times,serif" font-size="14.00">(B=1024, L=16384, V=32000)</text>
<text text-anchor="middle" x="277.56" y="-34.3" font-family="Times,serif" font-size="14.00">All GPUs</text>
</g>
<!-- lm_head&#45;&gt;output -->
<g id="edge45" class="edge">
<title>lm_head&#45;&gt;output</title>
<path fill="none" stroke="black" d="M277.56,-191.82C277.56,-191.82 277.56,-116.18 277.56,-116.18"/>
<polygon fill="black" stroke="black" points="281.06,-116.18 277.56,-106.18 274.06,-116.18 281.06,-116.18"/>
</g>
</g>
</svg>
